<mxfile host="65bd71144e">
    <diagram id="NDvJAJGpe4w62B9Y8Wvt" name="Page-1">
        <mxGraphModel dx="675" dy="656" grid="0" gridSize="10" guides="1" tooltips="1" connect="1" arrows="1" fold="1" page="1" pageScale="1" pageWidth="850" pageHeight="1100" background="#ffffff" math="0" shadow="0">
            <root>
                <mxCell id="0"/>
                <mxCell id="1" parent="0"/>
                <mxCell id="64" value="&lt;font style=&quot;font-size: 12px;&quot;&gt;On-premises (Azure)&lt;br style=&quot;&quot;&gt;10.100.0.0/24&lt;br&gt;&lt;/font&gt;" style="whiteSpace=wrap;html=1;labelBackgroundColor=none;fontFamily=Verdana;fontSize=15;labelPosition=center;verticalLabelPosition=bottom;align=center;verticalAlign=top;" parent="1" vertex="1">
                    <mxGeometry x="210.76" y="657" width="357.24" height="230" as="geometry"/>
                </mxCell>
                <mxCell id="69" value="GatewaySubnet&lt;br&gt;10.1000.32/27" style="whiteSpace=wrap;html=1;labelBackgroundColor=none;fontFamily=Verdana;fillColor=#f5f5f5;fontColor=#333333;strokeColor=none;fontSize=10;labelPosition=center;verticalLabelPosition=top;align=center;verticalAlign=bottom;" parent="1" vertex="1">
                    <mxGeometry x="220.5" y="687" width="103.69" height="190" as="geometry"/>
                </mxCell>
                <mxCell id="17" value="" style="group;fillColor=default;labelPosition=center;verticalLabelPosition=top;align=center;verticalAlign=bottom;container=0;" parent="1" vertex="1" connectable="0">
                    <mxGeometry x="218" y="218" width="307" height="250" as="geometry"/>
                </mxCell>
                <mxCell id="14" value="az-hub-vnet&lt;br&gt;10.0.0.0/24" style="whiteSpace=wrap;html=1;fillColor=none;strokeColor=#6c8ebf;dashed=1;labelPosition=center;verticalLabelPosition=top;align=center;verticalAlign=bottom;" parent="1" vertex="1">
                    <mxGeometry x="228" y="222" width="304.14" height="220" as="geometry"/>
                </mxCell>
                <mxCell id="15" value="" style="aspect=fixed;html=1;points=[];align=center;image;fontSize=12;image=img/lib/azure2/networking/Virtual_Networks.svg;dashed=1;" parent="1" vertex="1">
                    <mxGeometry x="510.49855569155454" y="205.08" width="21.64138017356475" height="12.920226969292392" as="geometry"/>
                </mxCell>
                <mxCell id="19" value="GatewaySubnet" style="whiteSpace=wrap;html=1;labelBackgroundColor=none;fontFamily=Verdana;fillColor=#f5f5f5;fontColor=#333333;strokeColor=none;fontSize=10;labelPosition=left;verticalLabelPosition=bottom;align=right;verticalAlign=top;spacingLeft=0;spacingBottom=0;spacingRight=-63;spacing=-18;" parent="1" vertex="1">
                    <mxGeometry x="237.39" y="332" width="282.22" height="106" as="geometry"/>
                </mxCell>
                <mxCell id="20" value="RouteServer" style="whiteSpace=wrap;html=1;labelBackgroundColor=none;fontFamily=Verdana;fillColor=#f5f5f5;fontColor=#333333;strokeColor=none;fontSize=10;labelPosition=center;verticalLabelPosition=top;align=center;verticalAlign=bottom;" parent="1" vertex="1">
                    <mxGeometry x="236.31" y="242" width="144.19" height="85" as="geometry"/>
                </mxCell>
                <mxCell id="21" value="Subnet1" style="whiteSpace=wrap;html=1;labelBackgroundColor=none;fontFamily=Verdana;fillColor=#f5f5f5;fontColor=#333333;strokeColor=none;fontSize=10;labelPosition=center;verticalLabelPosition=top;align=center;verticalAlign=bottom;" parent="1" vertex="1">
                    <mxGeometry x="389.27" y="243" width="125.56" height="84" as="geometry"/>
                </mxCell>
                <mxCell id="55" style="edgeStyle=none;html=1;fontFamily=Verdana;fontSize=10;endArrow=none;endFill=0;opacity=50;dashed=1;strokeColor=#009900;" parent="1" source="23" target="22" edge="1">
                    <mxGeometry relative="1" as="geometry"/>
                </mxCell>
                <mxCell id="58" value="IBGP" style="edgeLabel;html=1;align=center;verticalAlign=middle;resizable=0;points=[];fontSize=7;fontFamily=Verdana;labelBackgroundColor=#009900;fontColor=#FFFFFF;" parent="55" vertex="1" connectable="0">
                    <mxGeometry x="0.2126" y="3" relative="1" as="geometry">
                        <mxPoint x="-4" y="-4" as="offset"/>
                    </mxGeometry>
                </mxCell>
                <mxCell id="57" style="edgeStyle=none;html=1;fontFamily=Verdana;fontSize=10;endArrow=none;endFill=0;opacity=50;dashed=1;strokeColor=#009900;" parent="1" source="23" target="16" edge="1">
                    <mxGeometry relative="1" as="geometry"/>
                </mxCell>
                <mxCell id="59" value="IBGP" style="edgeLabel;html=1;align=center;verticalAlign=middle;resizable=0;points=[];fontSize=7;fontFamily=Verdana;labelBackgroundColor=#009900;fontColor=#FFFFFF;" parent="57" vertex="1" connectable="0">
                    <mxGeometry x="0.1233" y="-2" relative="1" as="geometry">
                        <mxPoint x="-13" y="-9" as="offset"/>
                    </mxGeometry>
                </mxCell>
                <mxCell id="23" value="az-hub-rs" style="aspect=fixed;html=1;points=[];align=center;image;fontSize=12;image=img/lib/azure2/networking/Virtual_Router.svg;labelBackgroundColor=none;fontFamily=Verdana;fillColor=default;labelPosition=center;verticalLabelPosition=top;verticalAlign=bottom;" parent="1" vertex="1">
                    <mxGeometry x="302.0015789473684" y="273.0028805073431" width="33.59259012016022" height="33.59259012016022" as="geometry"/>
                </mxCell>
                <mxCell id="26" value="az-hub-lxvm&lt;br&gt;10.0.0.4" style="aspect=fixed;html=1;points=[];align=center;image;fontSize=12;image=img/lib/azure2/compute/Virtual_Machine.svg;labelBackgroundColor=none;fontFamily=Verdana;fillColor=default;" parent="1" vertex="1">
                    <mxGeometry x="435.00129999999996" y="257.8598865153538" width="34.086598798397866" height="31.616555407209614" as="geometry"/>
                </mxCell>
                <mxCell id="30" style="edgeStyle=none;html=1;fontFamily=Verdana;fontSize=10;entryX=0.5;entryY=0.917;entryDx=0;entryDy=0;entryPerimeter=0;endArrow=none;endFill=0;opacity=50;" parent="1" source="29" target="16" edge="1">
                    <mxGeometry relative="1" as="geometry"/>
                </mxCell>
                <mxCell id="22" value="az-hub-vpngw" style="aspect=fixed;html=1;points=[];align=center;image;fontSize=12;image=img/lib/azure2/networking/Virtual_Network_Gateways.svg;glass=0;dashed=1;dashPattern=8 8;strokeColor=#E6E6E6;fontColor=#000000;fillColor=#CCCCCC;rounded=0;sketch=1;hachureGap=4;jiggle=2;curveFitting=1;fontFamily=Verdana;labelBackgroundColor=#f5f5f5;" parent="1" vertex="1">
                    <mxGeometry x="303.00157894736844" y="363.00139241694694" width="27.943925233644855" height="37.081588785046726" as="geometry"/>
                </mxCell>
                <mxCell id="29" value="MSEE &lt;font color=&quot;#ff8000&quot;&gt;AS 12076&lt;/font&gt;" style="aspect=fixed;html=1;points=[];align=left;image;fontSize=12;image=img/lib/azure2/networking/ExpressRoute_Circuits.svg;labelBackgroundColor=none;fontFamily=Verdana;fillColor=default;labelPosition=right;verticalLabelPosition=middle;verticalAlign=middle;" parent="1" vertex="1">
                    <mxGeometry x="349.63" y="540" width="43.75" height="40" as="geometry"/>
                </mxCell>
                <mxCell id="49" style="edgeStyle=none;html=1;entryX=0.25;entryY=0;entryDx=0;entryDy=0;fontFamily=Verdana;fontSize=10;endArrow=none;endFill=0;opacity=50;exitX=0.582;exitY=1.007;exitDx=0;exitDy=0;exitPerimeter=0;" parent="1" source="31" target="14" edge="1">
                    <mxGeometry relative="1" as="geometry">
                        <mxPoint x="250" y="160" as="sourcePoint"/>
                    </mxGeometry>
                </mxCell>
                <mxCell id="31" value="az-spk1-vnet&lt;br&gt;10.0.1.0/24" style="whiteSpace=wrap;html=1;fillColor=none;strokeColor=#6c8ebf;dashed=1;labelBackgroundColor=none;fontFamily=Verdana;fontSize=10;labelPosition=center;verticalLabelPosition=top;align=center;verticalAlign=bottom;" parent="1" vertex="1">
                    <mxGeometry x="173" y="40" width="140" height="116" as="geometry"/>
                </mxCell>
                <mxCell id="32" value="" style="aspect=fixed;html=1;points=[];align=center;image;fontSize=12;image=img/lib/azure2/networking/Virtual_Networks.svg;dashed=1;labelBackgroundColor=none;fontFamily=Verdana;fillColor=default;" parent="1" vertex="1">
                    <mxGeometry x="292.9" y="26" width="20.1" height="12" as="geometry"/>
                </mxCell>
                <mxCell id="47" value="Subnet" style="whiteSpace=wrap;html=1;labelBackgroundColor=none;fontFamily=Verdana;fillColor=#f5f5f5;fontColor=#333333;strokeColor=none;fontSize=10;labelPosition=center;verticalLabelPosition=top;align=center;verticalAlign=bottom;" parent="1" vertex="1">
                    <mxGeometry x="182" y="57" width="120" height="94.79" as="geometry"/>
                </mxCell>
                <mxCell id="48" value="az-spk1-lxvm&lt;br&gt;10.0.1.4" style="aspect=fixed;html=1;points=[];align=center;image;fontSize=12;image=img/lib/azure2/compute/Virtual_Machine.svg;labelBackgroundColor=none;fontFamily=Verdana;fillColor=default;" parent="1" vertex="1">
                    <mxGeometry x="233.0013" y="69.99988651535381" width="34.086598798397866" height="31.616555407209614" as="geometry"/>
                </mxCell>
                <mxCell id="54" style="edgeStyle=none;html=1;exitX=0.5;exitY=1;exitDx=0;exitDy=0;entryX=0.75;entryY=0;entryDx=0;entryDy=0;fontFamily=Verdana;fontSize=10;endArrow=none;endFill=0;opacity=50;" parent="1" source="50" target="14" edge="1">
                    <mxGeometry relative="1" as="geometry"/>
                </mxCell>
                <mxCell id="50" value="az-spk2-vnet&lt;br&gt;10.0.2.0/24" style="whiteSpace=wrap;html=1;fillColor=none;strokeColor=#6c8ebf;dashed=1;labelBackgroundColor=none;fontFamily=Verdana;fontSize=10;labelPosition=center;verticalLabelPosition=top;align=center;verticalAlign=bottom;" parent="1" vertex="1">
                    <mxGeometry x="461" y="34.81" width="140" height="116" as="geometry"/>
                </mxCell>
                <mxCell id="51" value="" style="aspect=fixed;html=1;points=[];align=center;image;fontSize=12;image=img/lib/azure2/networking/Virtual_Networks.svg;dashed=1;labelBackgroundColor=none;fontFamily=Verdana;fillColor=default;" parent="1" vertex="1">
                    <mxGeometry x="580.9" y="20.810000000000002" width="20.1" height="12" as="geometry"/>
                </mxCell>
                <mxCell id="52" value="Subnet" style="whiteSpace=wrap;html=1;labelBackgroundColor=none;fontFamily=Verdana;fillColor=#f5f5f5;fontColor=#333333;strokeColor=none;fontSize=10;labelPosition=center;verticalLabelPosition=top;align=center;verticalAlign=bottom;" parent="1" vertex="1">
                    <mxGeometry x="470" y="51.81" width="120" height="94.79" as="geometry"/>
                </mxCell>
                <mxCell id="53" value="az-spk2-lxvm&lt;br&gt;10.0.2.4" style="aspect=fixed;html=1;points=[];align=center;image;fontSize=12;image=img/lib/azure2/compute/Virtual_Machine.svg;labelBackgroundColor=none;fontFamily=Verdana;fillColor=default;" parent="1" vertex="1">
                    <mxGeometry x="521.0013" y="64.80988651535381" width="34.086598798397866" height="31.616555407209614" as="geometry"/>
                </mxCell>
                <mxCell id="68" value="branch-ergw&lt;br&gt;&lt;font color=&quot;#ff8000&quot;&gt;AS 65515&lt;/font&gt;" style="aspect=fixed;html=1;points=[];align=center;image;fontSize=12;image=img/lib/azure2/networking/Virtual_Network_Gateways.svg;glass=0;dashed=1;dashPattern=8 8;strokeColor=#E6E6E6;fontColor=#000000;fillColor=#CCCCCC;rounded=0;sketch=1;hachureGap=4;jiggle=2;curveFitting=1;fontFamily=Verdana;labelBackgroundColor=none;" parent="1" vertex="1">
                    <mxGeometry x="258.36982456140356" y="739.9133884116065" width="27.943925233644855" height="37.081588785046726" as="geometry"/>
                </mxCell>
                <mxCell id="70" value="Untrusted&lt;br&gt;10.100.0.0/28" style="whiteSpace=wrap;html=1;labelBackgroundColor=none;fontFamily=Verdana;fillColor=#f5f5f5;fontColor=#333333;strokeColor=none;fontSize=10;labelPosition=center;verticalLabelPosition=top;align=center;verticalAlign=bottom;" parent="1" vertex="1">
                    <mxGeometry x="330.76" y="687" width="120.78" height="77" as="geometry"/>
                </mxCell>
                <mxCell id="71" value="Subnet1&lt;br&gt;10.100.0.96/27" style="whiteSpace=wrap;html=1;labelBackgroundColor=none;fontFamily=Verdana;fillColor=#f5f5f5;fontColor=#333333;strokeColor=none;fontSize=10;labelPosition=center;verticalLabelPosition=top;align=center;verticalAlign=bottom;" parent="1" vertex="1">
                    <mxGeometry x="455.08" y="687" width="103.69" height="190" as="geometry"/>
                </mxCell>
                <mxCell id="73" value="Trusted&lt;br&gt;10.100.0.16/28" style="whiteSpace=wrap;html=1;labelBackgroundColor=none;fontFamily=Verdana;fillColor=#f5f5f5;fontColor=#333333;strokeColor=none;fontSize=10;labelPosition=center;verticalLabelPosition=bottom;align=center;verticalAlign=top;" parent="1" vertex="1">
                    <mxGeometry x="330.76" y="777" width="120.78" height="70" as="geometry"/>
                </mxCell>
                <mxCell id="76" value="&lt;span style=&quot;background-color: rgb(255, 255, 255); font-size: 9px;&quot;&gt;OPNNVA&lt;br style=&quot;font-size: 9px;&quot;&gt;&lt;font color=&quot;#ff8000&quot; style=&quot;font-size: 9px;&quot;&gt;AS 65510&lt;/font&gt;&lt;br style=&quot;font-size: 9px;&quot;&gt;&lt;/span&gt;" style="aspect=fixed;html=1;points=[];align=center;image;fontSize=9;image=img/lib/azure2/compute/Virtual_Machine.svg;labelBackgroundColor=none;fontFamily=Verdana;fillColor=default;labelPosition=center;verticalLabelPosition=middle;verticalAlign=middle;fontColor=#FF3333;spacingBottom=11;" parent="1" vertex="1">
                    <mxGeometry x="375" y="745" width="50" height="46.39" as="geometry"/>
                </mxCell>
                <mxCell id="77" value="&lt;span style=&quot;font-weight: normal;&quot;&gt;branch-vm1&lt;br&gt;10.100.0.100&lt;/span&gt;" style="aspect=fixed;html=1;points=[];align=center;image;fontSize=12;image=img/lib/azure2/compute/Virtual_Machine.svg;labelBackgroundColor=none;fontFamily=Verdana;fillColor=default;fontStyle=1" parent="1" vertex="1">
                    <mxGeometry x="488.76129999999995" y="745.3798865153539" width="34.086598798397866" height="31.616555407209614" as="geometry"/>
                </mxCell>
                <mxCell id="84" style="edgeStyle=none;html=1;strokeColor=#000000;strokeWidth=1;fontFamily=Verdana;fontSize=8;fontColor=#000000;endArrow=none;endFill=0;opacity=50;" parent="1" source="83" target="76" edge="1">
                    <mxGeometry relative="1" as="geometry"/>
                </mxCell>
                <mxCell id="83" value="10.100.0.4" style="aspect=fixed;html=1;points=[];align=center;image;fontSize=8;image=img/lib/azure2/networking/Network_Interfaces.svg;labelBackgroundColor=none;fontFamily=Verdana;fontColor=#000000;fillColor=none;labelPosition=center;verticalLabelPosition=top;verticalAlign=bottom;fontStyle=1;spacing=4;" parent="1" vertex="1">
                    <mxGeometry x="388.36" y="715.5" width="22.67" height="20" as="geometry"/>
                </mxCell>
                <mxCell id="88" style="edgeStyle=none;html=1;strokeColor=#000000;strokeWidth=1;fontFamily=Verdana;fontSize=8;fontColor=#000000;endArrow=none;endFill=0;opacity=50;" parent="1" source="87" target="76" edge="1">
                    <mxGeometry relative="1" as="geometry"/>
                </mxCell>
                <mxCell id="87" value="10.100.0.20" style="aspect=fixed;html=1;points=[];align=center;image;fontSize=8;image=img/lib/azure2/networking/Network_Interfaces.svg;labelBackgroundColor=none;fontFamily=Verdana;fontColor=#000000;fillColor=none;labelPosition=center;verticalLabelPosition=bottom;verticalAlign=top;fontStyle=1;spacing=4;" parent="1" vertex="1">
                    <mxGeometry x="387" y="804" width="22.67" height="20" as="geometry"/>
                </mxCell>
                <mxCell id="65" value="" style="edgeStyle=none;html=1;strokeColor=default;fontFamily=Verdana;fontSize=10;fontColor=default;endArrow=none;endFill=0;opacity=50;strokeWidth=1;" parent="1" source="68" target="29" edge="1">
                    <mxGeometry relative="1" as="geometry"/>
                </mxCell>
                <mxCell id="102" style="edgeStyle=none;html=1;strokeColor=#000000;exitX=1;exitY=0.5;exitDx=0;exitDy=0;opacity=50;dashed=1;" parent="1" source="101" target="23" edge="1">
                    <mxGeometry relative="1" as="geometry"/>
                </mxCell>
                <mxCell id="101" value="Azure Route Server&lt;br&gt;&lt;font color=&quot;#ff8000&quot;&gt;AS 65515&lt;/font&gt;&lt;br&gt;10.0.0.132&lt;br&gt;10.0.0.0133&lt;br&gt;Route Preference: &lt;br&gt;&lt;b&gt;ER&lt;/b&gt;, VPN, AS-path" style="text;strokeColor=default;align=center;fillColor=none;html=1;verticalAlign=middle;whiteSpace=wrap;rounded=0;dashed=1;opacity=50;" parent="1" vertex="1">
                    <mxGeometry x="47" y="198" width="152" height="97" as="geometry"/>
                </mxCell>
                <mxCell id="109" style="edgeStyle=none;html=1;exitX=1;exitY=0.5;exitDx=0;exitDy=0;strokeColor=#000000;opacity=50;dashed=1;" parent="1" source="103" target="22" edge="1">
                    <mxGeometry relative="1" as="geometry"/>
                </mxCell>
                <mxCell id="103" value="VPN Gateway&lt;br&gt;&lt;font color=&quot;#ff8000&quot;&gt;AS 65515&lt;/font&gt;&lt;br&gt;INT0 Private IP: 10.0.0.36&lt;br&gt;INT1 Private IP: 10.0.0.37&lt;br&gt;INT0 BGP IP: 169.254.21.1&lt;br&gt;INT1 BGP IP:&amp;nbsp;169.254.21.2" style="text;strokeColor=default;align=center;fillColor=none;html=1;verticalAlign=middle;whiteSpace=wrap;rounded=0;dashed=1;opacity=50;" parent="1" vertex="1">
                    <mxGeometry x="42" y="346" width="160" height="101.27" as="geometry"/>
                </mxCell>
                <mxCell id="108" style="edgeStyle=none;html=1;entryX=0.923;entryY=0.634;entryDx=0;entryDy=0;entryPerimeter=0;strokeColor=#000000;opacity=50;dashed=1;" parent="1" source="104" target="16" edge="1">
                    <mxGeometry relative="1" as="geometry"/>
                </mxCell>
                <mxCell id="104" value="ER Gateway&lt;br&gt;&lt;font color=&quot;#ff8000&quot;&gt;AS 65515&lt;/font&gt;&lt;br&gt;INT0 IP: 10.0.0.44&lt;br&gt;INT1 IP: 10.0.0.45" style="text;strokeColor=default;align=center;fillColor=none;html=1;verticalAlign=middle;whiteSpace=wrap;rounded=0;dashed=1;opacity=50;" parent="1" vertex="1">
                    <mxGeometry x="569.9999999999999" y="368.5" width="160" height="64" as="geometry"/>
                </mxCell>
                <mxCell id="127" style="edgeStyle=none;html=1;exitX=0;exitY=0.5;exitDx=0;exitDy=0;strokeColor=#000000;opacity=50;dashed=1;" edge="1" parent="1" source="114">
                    <mxGeometry relative="1" as="geometry">
                        <mxPoint x="545.3300000000002" y="696.9061278298027" as="targetPoint"/>
                    </mxGeometry>
                </mxCell>
                <mxCell id="146" value="" style="edgeStyle=none;html=1;fontSize=7;fontColor=#FFFFFF;" edge="1" parent="1" source="114">
                    <mxGeometry relative="1" as="geometry">
                        <mxPoint x="545.3300000000002" y="696.9693611086384" as="targetPoint"/>
                    </mxGeometry>
                </mxCell>
                <mxCell id="16" value="az-hub-ergw" style="aspect=fixed;html=1;points=[];align=center;image;fontSize=12;image=img/lib/azure2/networking/Virtual_Network_Gateways.svg;glass=0;dashed=1;dashPattern=8 8;strokeColor=#E6E6E6;fontColor=#000000;fillColor=#CCCCCC;rounded=0;sketch=1;hachureGap=4;jiggle=2;curveFitting=1;fontFamily=Verdana;labelBackgroundColor=#f5f5f5;fontStyle=0" parent="1" vertex="1">
                    <mxGeometry x="439.99982456140356" y="361.0033884116066" width="27.943925233644855" height="37.081588785046726" as="geometry"/>
                </mxCell>
                <mxCell id="115" value="BGP" style="" parent="0" visible="0"/>
                <mxCell id="116" style="edgeStyle=none;html=1;dashed=1;strokeColor=#FF8000;opacity=50;exitX=1;exitY=0.5;exitDx=0;exitDy=0;entryX=-0.102;entryY=0.161;entryDx=0;entryDy=0;entryPerimeter=0;" parent="115" source="117" edge="1">
                    <mxGeometry relative="1" as="geometry">
                        <mxPoint x="345.16750000000025" y="546.44" as="targetPoint"/>
                    </mxGeometry>
                </mxCell>
                <mxCell id="117" value="&lt;span style=&quot;font-family: Verdana; font-size: 12px; font-style: normal; font-variant-ligatures: normal; font-variant-caps: normal; letter-spacing: normal; orphans: 2; text-align: center; text-indent: 0px; text-transform: none; widows: 2; word-spacing: 0px; -webkit-text-stroke-width: 0px; background-color: rgb(251, 251, 251); text-decoration-thickness: initial; text-decoration-style: initial; text-decoration-color: initial; float: none; display: inline !important;&quot;&gt;On-premsies BGP Advertisement&lt;br&gt;10.100.0.0/24 - via ER and VPN&lt;br&gt;&lt;b&gt;10.100.0.4/32 - via ER only&lt;br&gt;&lt;/b&gt;10.0.0.0/8 via VPN only.&lt;br&gt;&lt;/span&gt;" style="text;whiteSpace=wrap;html=1;fontSize=10;fontFamily=Verdana;fontColor=#FF8000;strokeColor=#FF8000;dashed=1;" parent="115" vertex="1">
                    <mxGeometry x="104" y="573" width="207" height="66" as="geometry"/>
                </mxCell>
                <mxCell id="118" style="edgeStyle=none;html=1;exitX=0;exitY=0.5;exitDx=0;exitDy=0;dashed=1;strokeColor=#FF8000;fontColor=default;opacity=50;" parent="115" source="119" edge="1">
                    <mxGeometry relative="1" as="geometry">
                        <mxPoint x="402.0000000000002" y="545" as="targetPoint"/>
                    </mxGeometry>
                </mxCell>
                <mxCell id="119" value="&lt;span style=&quot;font-family: Verdana; font-size: 12px; font-style: normal; font-variant-ligatures: normal; font-variant-caps: normal; letter-spacing: normal; orphans: 2; text-align: center; text-indent: 0px; text-transform: none; widows: 2; word-spacing: 0px; -webkit-text-stroke-width: 0px; background-color: rgb(251, 251, 251); text-decoration-thickness: initial; text-decoration-style: initial; text-decoration-color: initial; float: none; display: inline !important;&quot;&gt;Azure BGP Advertisement&lt;br&gt;10.0.0.0/24 via ER and VPN&lt;br&gt;10.0.1.0/24 via ER and VPN&lt;br&gt;10.0.2.0/24 via ER and VPN&lt;br&gt;&lt;/span&gt;" style="text;whiteSpace=wrap;html=1;fontSize=10;fontFamily=Verdana;fontColor=#FF8000;strokeColor=#FF8000;dashed=1;" parent="115" vertex="1">
                    <mxGeometry x="434.54" y="452" width="179.46" height="70" as="geometry"/>
                </mxCell>
                <mxCell id="149" style="edgeStyle=none;html=1;entryX=0;entryY=0.5;entryDx=0;entryDy=0;fontSize=10;fontColor=#FF3333;textOpacity=50;opacity=50;dashed=1;" edge="1" parent="115" target="148">
                    <mxGeometry relative="1" as="geometry">
                        <mxPoint x="516.6500000000001" y="697" as="sourcePoint"/>
                    </mxGeometry>
                </mxCell>
                <mxCell id="130" value="OPNSense" parent="0" visible="0"/>
                <mxCell id="132" style="edgeStyle=none;html=1;entryX=0.5;entryY=0;entryDx=0;entryDy=0;strokeColor=#000000;opacity=50;dashed=1;" edge="1" parent="130" source="76">
                    <mxGeometry relative="1" as="geometry">
                        <mxPoint x="227.1199999999999" y="938" as="targetPoint"/>
                    </mxGeometry>
                </mxCell>
                <mxCell id="134" value="Current configuration:&lt;br&gt;!&lt;br&gt;frr version 7.5.1&lt;br&gt;frr defaults traditional&lt;br&gt;hostname OPNsense.localhost&lt;br&gt;log syslog notifications&lt;br&gt;!&lt;br&gt;&lt;font color=&quot;#ff8000&quot;&gt;router bgp 65510&lt;/font&gt;&lt;br&gt;&amp;nbsp;no bgp ebgp-requires-policy&lt;br&gt;&amp;nbsp;no bgp default ipv4-unicast&lt;br&gt;&amp;nbsp;neighbor 169.254.21.1 remote-as 65515&lt;br&gt;&amp;nbsp;neighbor 169.254.21.2 remote-as 65515&lt;br&gt;&amp;nbsp;!&lt;br&gt;&amp;nbsp;address-family ipv4 unicast&lt;br&gt;&amp;nbsp; network 10.0.0.0/8&lt;br&gt;&amp;nbsp; network 10.100.0.0/24&lt;br&gt;&amp;nbsp; neighbor 169.254.21.1 activate&lt;br&gt;&amp;nbsp; neighbor 169.254.21.2 activate&lt;br&gt;&amp;nbsp;exit-address-family&lt;br&gt;!&lt;br&gt;line vty&lt;br&gt;!&lt;br&gt;end" style="text;strokeColor=default;align=left;fillColor=none;verticalAlign=middle;rounded=0;dashed=1;labelBackgroundColor=#FFFFFF;fontSize=10;opacity=50;labelPosition=center;verticalLabelPosition=middle;whiteSpace=wrap;html=1;" vertex="1" parent="130">
                    <mxGeometry x="594" y="801" width="190" height="282" as="geometry"/>
                </mxCell>
                <mxCell id="135" style="edgeStyle=none;html=1;entryX=0.004;entryY=0.547;entryDx=0;entryDy=0;entryPerimeter=0;fontSize=11;strokeColor=#000000;opacity=50;dashed=1;" edge="1" parent="130" source="76" target="134">
                    <mxGeometry relative="1" as="geometry"/>
                </mxCell>
                <mxCell id="160" value="" style="shape=image;verticalLabelPosition=bottom;labelBackgroundColor=default;verticalAlign=top;aspect=fixed;imageAspect=0;image=data:image/png,iVBORw0KGgoAAAANSUhEUgAABBQAAAGrCAYAAABwu8SbAAAgAElEQVR4nOzdf3RU1f3v/xfFG2E5FptWSenHwUgg/Rh7V6EBuRqixKAYrI0fFQTEriSwhNgCciWEgmIUSoy9CrRGvCHJR5GfaqX+QDAxwSR6o6TQ9VX6aSAYGa4Yax3lQ7zBdOWT7x9nzsyZX0lOSDIDPB9rsXQm58eemX3mzH7vvd970D//+c9OAQAAAAAA2PCdSBcAAAAAAACcfQgoAAAAAAAA2wgoAAAAAAAA2wgoAAAAAAAA2wgoAAAAAAAA2wgoAAAAAAAA2wgoAAAAAAAA2wgoAAAAAAAA2wgoAAAAAAAA2wgoAAAAAAAA2wgoAAAAAAAA2wgoAAAAAAAA2wgoAAAAAAAA2wgoAAAAAAAA2wgoAAAAAAAA2wgoAAAAAAAA2wgoAAAAAAAA2wgoAAAAAAAA2wgoAAAAAAAA2y6IdAEARNinlVq/7nlVHnSptUOSI1ZJ18xV3soMOT1/q//yB0rNWqkFk2IjXdroc/KAdv6+VK98JF09a7GW3jZaMZEuEwAAADAABv3zn//sjHQhAERI02bNm1+qpo6A5xNz9NzGVNXM+6VKmzzPDR6nRdueVOalA13I6Faz+gatett8FKvMJ/+oRWMjWSIAAABgYIQdoeD+6y5tLv+jav7mkrtVkmIUO3y0xmXM0Iy7UpUwdOAKGYrr+Xn6ZfkRSVL6qn1acUNkyzMgmjdrXnapmsJuEKPY4XEaOXaKMmfOUKozGvtJj+kFbyM1XQXVK5Ua6SL1iXa1fLhbr2yvUOX/d8hzzUiOS5N0ddrtWpCdruj7OFq0c0OIYIIkR+JoOdWqU6csT3acUmvbgBUuCvSkrrYGvCdutbcOUPEAAACACAvOodBxRLvy79Yd96/TrgaXt2Ektcv9+SFVlj+seT+/W8ufP6BI/m7+5LMjETx7tGqX+3OXDu4p1apf3qp5G+oj+hmFdkyfNUe6DH3s00o9Me9WzVy4TjvfO2S5ZqTWLw6pfsdq/TJznp54uyVyZQzli3rVf+h76Jz2qF6u3KfqvdtV8suJkpI0Z2GmETwc7FDC7TnKdEaqsJHQk7rqUEbWYk0cLkkxirt2sW6/tv9LBgAAAESDgBEKrapZu0zr33d3vVdHi+rLl+iBjhKVZI3uv9J15Z+ROe3Zo11Nr+Trge8/p5LZIyNdGD/tIXrEz1rhpgwEajui3asXy/HD7Vpw1YCUrHsffyJfWG6cbv9lqmIHSxocpzhPqgTHtYtVsntxZMoXBXpUVxMytXZ7Zr+XBQAAAIg2/gGFv+5Q6du+YELspFw9el+mkn4UI6ldrY312lFerBfeb5ESc7Ts3ggFE+SWu5uYx/kgcKpH+8ljOvLODq3buFtNnmHYTS++ovrZizUxMkUM9oVbX0a6DH3lZI3WLPMPJsRdk6NFubdrnNOhGLWrtbFGz/yuSLub2pWQ9Vj0BBMkqa3VMoIlVrHkRvB3LtVVAAAAoB/4BRRcDfVymQ+GZWjpqulKGmw+ESNHYqpyClN1e0ONjo1OVcJgRcgptZ7qfqto1vreOj2wepeaNFqZK5/SomsdZ3zMmGEjlXRbnkp+IP18xW6jsXjykJqapYnxZ3z4vtF6StH20fX2s6gvW6dKb2ArVqkPFqtgWpxlixg5EtO1tGSi0vcd1ugbIhWAQ69EYV0FAAAAokn4ZSOHOHRxmIBBbHKq/BaPa9mpX80s1iFJUpymb9iuBT8JsWPrbq3KLFJNhySNVk5Zie4xG7rtx1S5cb021x2W6wuj3zQmNkmpv5ihOXenGgntXDu1/MHnVf+Ff2aAyoIbVFlgPgqRPK3DrUNvPK/SXTU61OxWu6SYWKeSrv835dyTqaSglfBqtGbyw6qUpLGL9fKTmXK4arTz+R165b1DcrdJGhqrpGvvVs6vp2vsMElql+utYq3bUqmDrlZJMYqNH6fbc/N0T3LACTpqtP7hXZ6e7SPaVVSsa17O08S+CtBcM07jtFs1Mo5/7JikwIBCiPfEWC7wdk2/N1xCR8v7ojDJMPet1uQC7xbez8L1Ur4eeK7eL7+AVKlVkyt9D298VNUrA9LeuQ9p1wuleuWdj+Ryt8t4X69WamaO5kxLMoboB+pJXfK+D738LFp36803fMNkHDcu1lK/YIKVQ2NvGBf+WL36LCwJA4dlau2uxZpovm7re3VVqmZk5Wq6tQ66dmr5A5tU7263HM/yWSTk6LmSOXLKP/mp9Xk/7cdUs32zdr5er0NfdJ21w1tn/BKMBnwXmMXs8tzB12is+4Be+F/rtON9Y/lLx22Feu2BiZb3eLte2Fujw80txjU82KHYxIm6/e65umeS77OzXVfD1PkgQXXZSNo58dYQ9bKb17mzuFQ73vfk6xjskHNsuub8Olfp0Zf5EwAAAOcwv4BC7GU/lMxZ1Z/vVNFTV+uphamhG21WcRnKmFSsQ7WS1KLdlfVa8JMQg+wbDniCCZJ+MkXpZgOiaZeWLFungwHTGNrdRhLIyu1JumfN48q55Fv9o5sGS5BPd2vV/yxSzeeBx3bp4Cvr9Ks9FcrZ8LTuSQiz/4lPVLMjXztK6tVinU/d5taht4u15OAJrS1J1aFH8vXCh9YGWrvczfUqXTpXx1Y9rxU3WHq9Xcf0ifVYJ4+oydWHowja2uUrSZxivx/w9zDviVrdOvR2qVa9vVkJtz+qpxZO1JmPm/D4f18GNNC61/LGw3rgqRr/913tcjcf0K6nDmh3ZY6efmqO/0iZntalsZ5X1svPovWdGl9dllOZ/5bau/eqLz6Lky1qemudStft8k51MbTL/ddKPbP0gI49+ryWTvIcoeNb/cMvmHAGmjbrVwtLdSiSqz+cOiV302YtC8hlEXfZD2UE+tbpsXW7A94bSR2tcv+1UqUPV+qdrBKVmFO4elFXuxO6LhtJO4162YPRMeG+izpa5WrYpTXZh9RSEhyYAQAAAPqL3yoPjikZyrR2ZL76sO74+d1asmGXDrV01QBxKGNqhrfB0/pOjepDJDOrqfP18CVdlyqjT7BFu4qDG4B+2g6p/sPPunkpIZys0ZqFIRprAccuXVakmnANiM93af3G+qCGgJd7l5ZPXxIQTPDbQJXlOzyjNzycI3WFtRE8bLQS+jB7fktFpeq9j67QSGsDoyfviSeh47wN9V1t1K9a963W/b8LboBZtX9YqmW/q7HkAehFXerlZ/HR4Y98D4ZP1MTe5Ebos8+iXqVrA4MJVm7tfnG3+nyNiY56rV8W4WCCJDW/oYeWBSbGdOjqhJHSyUo9UxQimBCgqfwxPfNh19v0Vk/qstqOaNfDc7X+/S626e67qOOIdrwcuWsWAAAA5x//ZSMHT9Six3OUNNTyXFuL0ZM/8yb9fP5qvbDvSOjM59ekKnWY5/9P1qg28IdxR73ebzAfJCn1enOI8WEdOmg+79DEhSXaW7lP1dVv6bWNj+qea+IUk5ijZbNHS/FzVFK9T9XVjyrdcuj0VftUXW3+M4cbt6rm90W+Oe6DncpYXqLX9hrb7S1ZqQyz4ejerZ1vdN3cik3O0dptb6m6+i1tK8yU34CGDkmK1disJ41l93aX+Pc0uup10GXZfnCqFj3qWY5v6Ghl5uX2yXSHdvcR1Wxaovs3HPA+57gxQ6neogS8J4rV2KxCbfO+J48qM9F3vJZXivuskeW8t8T4fFb5fXIqqLZ8duYQ8tYarV9XKW8xnRlasfF17a3ep+rKt1SyPENOz/vl3rNDu70fnY26ZOrlZ9H+jSUCNWKEfmjv7VC/fBbODK0oect4LwPr4If1qv/C8//mdRTuswg1rSHUK6jYrV0B15f5fm8rnO4bORKboYLXjGMHTZHpCx0tanFLMQmW17/3j1qQLGlYhhbcO9pY9nLaYv3hOU89qn5L2wrneKYrSZJLuyuNxritutqdwLocO045hdt9dXlVpu996mjRruJiHepmZQnfd9E+7d1WqEzLl1FrXb0IKQAAAGCgfCfomYQ5+sMLTyrn2jgFzsZtbaxUacE83Tw7Xy8cDOjSHzxRGbeazZBW7a6q8f97Q71qTnr+f+wUpYecbu5Q3BWjFTNY8iWB3K69T8+xnwDyi0rtetssY6wy1zyvpTeNlsPzomIS0rV0ma/hdOj9eoXr2I698VE998QcTYyLkRSjuGsWa4ZfwyhW6aue15P3jjOmhwwdrcys2y2NsiM69nHAK712sUp2h2j42VBZcIMmT/b9u/mOeVq15YCl8ZKupb+2DMX3e08k54zH9OS9ExXnfU9Steh3jyrd0sja+aeAz3EAuCt2qdKsK7GZWluWp/REh1EfB8co4aY85d3t/eRU/39CfXI9r0tn/FnExiooDUd3+vqzSJyjkpI8pSd4DjB0tDLvzpDvMvuHvjwZZt9ecv/dMtJj0r1aepPv/Y67JlfLZns+I/duvflOH88hCJQwR09vtLz+mBhPWSTnvz2m53a+rpIHM5Xk9NQjxSjumhzl/sJ3lbb+9Yhcgcc9Q351WU5Nf+RJI7AlGXX5hsV6amW67xp17dSu2vDHi71xpUoKze8iKSZuonIyLdPLTrrVei4tywoAAICoFhxQkKTYcbpnzXbtfflpLbp9nOKGBvz983qVLn1ALzT5P510661KMh/sq9RuSxvi0MF679D0sZOsSR3HadJU81GLdi29VfNWFGvn+0fUas4i6E3v/aGP5O2sjp+madeE2Oaq0Rpj/v+JEwo3qWJcSvD8+DHxll7uhNs154aALRIsxx5wMYq7NkdPlq30jRqR/N8TJWlaZlLwro5UZU61RHsaDgx4j+dHh3wjLJy3Tgs5YiApwffufva5+cn1U13qjtsdNhgVVh9/FgnXpishMAIYf4Wu8D5wqeX/2i1kN2y8l//4sn8XYEy9Oyd80NERJ2espI52tXxYo50bi7T8/rs1846bNO/5vg4h+LPWZf3kVt0eIlmt44bblTHc97j+YPgrblxKelBOG4fTaQkcfaaW/n1JAAAAgFf4VR4kKTZJmQufVOb97Wqq3azSkh2qP+FpmXUcUeljpRr7XI4viGBNzthRo/frWpUx1SHpkGr2mePSJyp9irU/16HUBx/Xon8s0/oGt9TRqqb3dqrpvZ16ZrBDCTfcq9zc6RprswvY5Trme9C8WfMmb+56h8/PoTXnr12skjUZQUEQv/dEP1RcmEUJkn58tWTOuD/Zqj5K39dDx2Qtpuv5eZr8fNd7tPzD/OT6py6FEnORQzJDZJ5glJ3DDshn4XD0XVLNEJzXpiph0xFjpYZ9xVo1dqRWTButGLWrpWGTHt/ia9le4RzZjyWRdzRCSB1uHdxSpKLt9WoZ0HwP/nVZl8Up9MecpKSrJXlyabR+Y/OKc1zcr58zAAAAEE7oEQqBBsco4YYcrd3yRxXcaM3aGJAbICA5Y02tJ2Fe8wEdMBPPXZtqmdNvHn+0Mp/Yrm0bFisz2TLVoqNVTW8Xa8n0eUGjIfrc8FgFLoYQ7ay5I/4wwzLr/b1NKu0quds5Ju4Hlk9ugOrS1WOu9j34/KAONp/5Mc868XO0LMscqeNWzVPzdHP6DZqcfpNm5u/0JUmMzdSNkyJUxo4jeuH+f9OSck8wYWicxt6eq4INz+nlXW/puazR3R4CAAAAQGjBIxQ61MVQZodS754m59ubPXONj+izY5JfBrdrUpU6bLd2n5T0Xo1qWjM08S8HZbbhUieFW14vRnE/ydSiJzK1qK1Fh2rf0Atlm1X/uUKPhuiG80eWJTCHT9cftuf2eN+zUdK8XGVW5HuS5Lm1q7hY6cm5SrJ8lk7nSHnfE7nl/kLSpcHHOvQ3ywoGwxxBuTS61HGm4xlGKu5fJLPCxM14Wtvm2/3k+rYuheKYMFFjVe+ZtnBEr+yq1z0PhFgqNYwB+SwGQMLsxZr+9v3aGW6Y/eDRuueRub1KOtre8e0ZlU2SDpU/ptJGz4PEOSrZkOM3NaR/MzuMlHOkvHXZnBoTPJLlkA5ZPmbHRdH2KQMAAACh+Y9QOFmjNbPv1qpXj4UdWt3adMySuGy0fvgvARv4JWes18GGVtU3eOYRD07VNSnB4YTWD2v8l/obGqekm3K09tnF8jbRgkZD+IRcdeK/j9NY8/8/362db/dzUjibWt9bp3kZN2hyxjytf68PyjZ4onJyU/2Su5W+GrByRdLVvvdEB/TKy4cUpLVGuyss+yWPU7hm8id+47ll1J9iO0kc20N+duP++zjv/7fs2WFJate93tSlXn0Wl6Yr3dLr7n61SGv2hdu3XU3l+XrC+vc+/iwio1U1ax8yggmDnUq4KtYb8IiJdWrs7Yv1h50lyvlJdwPyj+hYQFVS02a/KRO949aRv/qOkZQ+zT/PRIdbh5t7uhxt6LranauTfHVZB/+oHSFW6mitfUOVlqVDJ46Nrk8ZAAAACMcXUOg4oheWPazKz1tU89Qv9fN5xhKRbnPOcXurmvatU/4GS4PROVFj44MPak3OWPnOOr1vDr+/IV0ZgW2LkzVa/8jDWjL9bi3fVKOmk+3e8x18vUa+jrvvK9bStWedM13zYrG3Edne4jZ6HS9NV+aN5slaVbP6Xv1qQ6Wa3GaopF2trkPa9bt5mrcxRGOuP3XUaP3Du9TUJmP9+aJi1fdBZnbHjbnK8bVSdfC5Yv/GuN97Irl2PKQlz9erxXzLm2q0/sGHtdu3XqOm/8K6PN4PFWf5vJv+tFmVnp3bW2q0fuHDlmUQwxhsbdHVaEfJAbk7ZCTMcxsN7tgpmb7VDU7WaE32/Vr/ln9ddH24S0/Mm+e/lGJv6lKvPwuHMnIXa6y3HrpVWfBvmve7XTr0qaWONdaoNP9ezXu+XrtXWxKZnvFnEQVcr2jz20YBnbMfUsnTf/QsybhPe19+Xk8uzFRSuMQSzh9qhOVh5fZSHfJ8vu0f7tSSZaW+KRO9dkqt/8/36FDlH1Vv1tdP61X6wN1dBIHUo7raHb+6LJd2PrJEL7zfYgRsO9rVtG+dHijYbVkidboyIzU9BAAAALDJN+Wh9TN99rXvD+1NlSotqFRp2F1jlTF3Ruhh49bkjPsqZYYg0lMCG0Ttqi8r9jRCW1S/5WHVbwlzurETNc7b/hqnpGul3ebyao07teSOncb/D85QQWWeUuVQ6q/zlH7QbOS6deiV1Zr3SohjD96s3TMLlTEsxN/6g+uYPrE2lk4eUZNLmhgiOGNPnDJz5+iNeZuNUdYna/RMWb3SvUPxg9+Tg+X5mlke+mixU+dqjl9W+tGaeK1TLzR7en3dlVozs1Jr/HaKVWxXqx6MvVqpg3erxvP6m3Ys0R07PH+b+qiql6VKjlQtWpyuAwWVxnHch7Rr7TztWhvieNt3a85PMuTobV06k88iLlOPrvxIvzTLqXY1vbFOv3pjXejtO47ondpDmp6QpJgz/iyiwGdfmuki5W46pKa20UoIXBEmnMETdc0kqcZ7DW/WrzICEqfGxsrhdp/BtISRGpvslBo99bVxp5bP3Nnz3XtSV7sTVJcPqDT/7jDfq7HKmHuv3zQlAAAAIJr5RigMS9XS55/zZGnvxtDRynx0k5ZOCjeU2T85o3H8jBCJ2WI08f7HtOCaMCnuTcMzVLAq05Ih3aGMe8MsE9fxkY6YvcDDUrViQ55Sh4fYzlqK+Fg5BjL7u3OkrrCWfdhoJTjDbm1PQo5ybvN1C7tfLdUL1oSBPXxPnLc9qpIHg/NdJN01V+nhep1jx2nR448ro6vGuCNDc+4Nkwiv8Yh3urnjhpV6+sFUxXXZuIpRwvccngZnL+vSGX4WjhtW6rknczSxm/dTg+OU+uB2lWQl+a6vM/wsIi5pjMZ53jvvtJHJgf9u0h1336/lGyvl8ptH1cU1LEnOTK0tydW4MH/ucRG7qq+D45T6QI7ChgV6WFe706O6PNjZzXcqAAAAEH38cyjEjFT6gyV6bdvTWjRjopKG++ZEa7BDsfHjlJH1qJ7bVaJFk7pZJO+aVKVaevwdKamhE7PFjNb0wu3aW7JS069NUqz393SMcb75hdr2fJ7fsSRJCXP0dNlKZSY75TCPOzRWzuSr9UPreX6UoYItb6lk+XRNvCo2YNsM5ax6Tq+V5Cm1m3ZonxqcqkWPZhq9uUNHKzMvt1dJ68KZmJ1reb+OqHTTbv9e3h9lqGDLH/WHBzI1Nt7yGTtilXTtdK0oeUvPPZAatN69JE8jOOB9dzg19vaVem7bk8pMiNGF3USkEu59Ws8tz9RYp6/xFBPr1NjEH/oFs+KmPaptr5VoxYyJSro0YNupOSp47nWVPJjqCw70pi71wWfhGDtHa7f8UX9YnqP0q+IUa+mld1yapIkzVqrkte0qmBaikp3JZxFpjgzlLBzXzXKZ7XJ/fkj1O1brlzOLVGOtiAlz9NQTuUr3y72QpPT5T+rlssWaGBvjq2O9NSxVK0qe1IIbk3yfi8PM77BdBbeNU1wXAZ2e1tXuxE17VNt2Pq1Ft4+TM9a3p69+PN/9dyoAAAAQZQb985//7OyfQx/SM3ffr52fS5JDGWte19Jr++dMACKg44h2rXhI699vkYbGKlZuX56LMMYu/KOevJ2GMwAAAHAuCF42sq+894Z2m5nLnbcrg2ACcA5pVc3vlmn9+25jFMBzj1qSD/q0nzygzQ8u8SajPHXqlEItnAgAAADg7POd7jfpufZ2SWpXy/ubteR/+YbZJ2VMC528EcBZ6oBq93hSb7Z+pkMHj8h90pokoV2tXxxR/Z92qcabw8OhqxNHDnA5AQAAAPSXPhyhUKP1GQ9rd+BSb87pWnDnQCYoAND/vq84pySXjKkPBfO0q5s9Ym/MU841A1A0AAAAAAOi70YoNB3RR4HBhNhxWvRQLsugAeecJM24L1POHl3bMUqYtlJPL4/ClSoAAAAA9FqfjVBo/79fqnWopDYZGeqvuVs5udM1lunSwDnJce1iPffaNFU+t0O7PzigIy63Ws2g4tBYxcVdoXE3ZCjjplQlxdlZEwEAAADA2aAfV3kAAAAAAADnqj5NyggAAAAAAM4PBBQAAAAAAIBtBBQAAAAAAIBtBBQAAAAAAIBtBBQAAAAAAIBtBBQAAAAAAIBtBBQAAAAAAIBtBBQAAAAAAIBtBBQAAAAAAIBtBBQAAAAAAIBtBBQAAAAAAIBtBBQAAAAAAIBtBBQAAAAAAIBtBBQAAAAAAIBtBBQAAAAAAIBtBBQAAAAAAIBtBBQAAAAAAIBtF3z11VeRLgMAAAAAADjLDGpra+uMdCEAAAAAAMDZhSkPAAAAAADANgIKAAAAAADANgIKAAAAAADANgIKAAAAAADANgIKAAAAAADANgIKAAAAAADANgIKAAAAAADANgIKAAAAAADANgIKAAAAAADANgIKAAAAAADANgIKAAAAAADANgIKAAAAAADANgIKAAAAAADANgIKAAAAAADANgIKAAAAAADANgIKAAAAAADANgIKAAAAAADAtgvM/3G73ZEsBwAAAAAAOItcYH0wYsSISJUDAAAAAACcRZjyAAAAAAAAbCOgAAAAAAAAbCOgAAAAAAAAbCOgAAAAAAAAbCOgAAAAAAAAbCOgAAAAAAAAbCOgAAAAAAAAbCOgAAAAAAAAbCOgAAAAAAAAbCOgAAAAAAAAbCOgAAAAAAAAbCOgAAAAAAAAbCOgAAAAAAAAbCOgAAAAAAAAbCOgAAAAAAAAbCOgAAAAAAAAbCOgAAAAAAAAbCOgAAAAAAAAbLsg0gUAAABA906ePKnPPvtM33zzTaSLYtvFF1+sU6dORboYQI9ddNFFuuCCC/Td735Xl1122YCd95tvvtHp06fV2dmp9vb2ATsvQhs8eLA6OjoiXYwBceGFF0qShgwZoosuuqjH+xFQAAAAiHJff/21jh49quHDh2v48OGRLo5tH3/8sX72s59FuhiALS0tLfr6668laUCCCt98843a2to0ZMgQORyOfj9fXztx4oRGjBgR6WL0qXPxNXXl1KlTamtrk6QeBxWY8gAAABDlWlpaNHz4cFu9RgDOTFxcnL773e/q5MmTA3K+06dP68ILLzwrgwk4N1x88cUaMmSITp8+3eN9CCgAAABEuW+++YZgAhABcXFx+q//+q8BO9/FF188YOcCQnE4HOrs7Ozx9gQUAAAAACCM1tbWATnPt99+OyDnAbpjJ38HAQUAAAAAAGAbAQUAAAAAAGAbAQUAAAAAAGAbAQUAAAAAAGAbAQUAAAAAAGAbAQUAAAAAAGDbBZEuAAAAAACgv3yq1x9fr5ovjUexkxYp/+c/8t9kf5nKlK3s8QNfOpzdCCgAAACcdz7Qs/eV6oD1qbE5enb+hEgVCEAf+/S1Qq2vdQc9765dr7xaSYpV6uJ83fppmfJe/Jt+fNeAF/Hct994byVJ30/VomW36keBz3fjx3cVRXWgh4ACAADAeSNEIMF0sFT33VdKYAE46/mPSAjPrZp1eaoZiCKdlz5QmTVo8GWNNr82Vvk//9T/+W787cUyfZCcrQmD+qGIfYCAAgAAwPng+J+0avVutXS33cFS3bfqM60o+IWcA1Guc8j+8ny9/I9JWrh0mkZEujA4T/VgeoMk6QOV5b2knjdrgdAIKAAAAJzzXPrTJkswIeQoBMvohZbdKt01VgWZ0RdS2F+er5cbLU98nwY8YPr0tc3eYMKP73pc2ePDdGvv/4hgAvoEAQUAAIBz3f43tdsTTYi7ZUWYQMEE3fdsnP60ao12t0gtb76pDzLvU/RMfjihN57YoFpN0sJCXwBhf3m+NjwhggqAPtBeT86E2EmLuggm9Hz+/oA6Wq65C7bqWGeoPzo1a2OpskYNdKHQHQIKAAAA5zSX/vS6mTVhnKZ1OerAqV/cOk67Nx2QdEBv7HJpQrSMUmjYq9ovYzVpoX/gYHxWoaI4XxkwYD59rcoz6uDHSgs5zcHwga5WUVH2QBWr50ZladNbWQFPNqk8J1dbO1M06awLJmdWjJgAACAASURBVExQdlGokOyPwjx/diKgAAAAcE5rUYs512Hs2O5HHIwfq3GbDuiApJaWFimqMim49fcTUrdDEU68oaINtTLz28emLFTerb6dgqZNJN6hwixfWOLE60Xa8MVkFd78d+9xEu8sVFZy8LFDT7nYr/L8l2Wewrsv0I8+/bunViZe3eV1PmH82dOYbSpbq22u67S8IksJkS5Mb7DKAwAAAM4VcXFxPdlKcXFS99kbB1jy1Up8qVGNL+WrXF000BvKlf/SF5q0sFDTRkhG436DimQEFfaX5+tl3aHCQs8v9BNvqGjDyypvGO9/zH9Uq2hLku4pLPQFCxrKlf9So2JTFqrQE6DYX56vF14f6wtYfFmrDfmJuqOwUFmev7/8Urn2J2cxkgL96FP9/R/G/8VeFn50wtmlSlu2uXT5zHylRboovcIqDwAAADiH9GzEgWVEQ1QZr6xCGT3/L+Ur/6XgkQfSfpV7GvzTRlj2u/Mj5Vcf1IlbRwRPkRgxTZMTa/Xyh/ulZMtfvrxUkwutIw+MYyvxDr9zBh0vYMTC+JsnqbqxVh81SOMZpYB+8yPduqxIt/ZqX9/KEOFXhRh4TWVbVKcULc8aHfLvmzdv1vPPP9/lMe69917NmTOnP4oXMdH2ugkoAAAAnNMmaOzYUh04KOngQX2gCV1Pe9h/UGbGhZ6NaBhI45VVOF7eBI11G5RfZ5lS0PCRGhWrSeMC5kSMuEyxX/5dn0pBow28vv93dTmbouEjNUpK/AnjDHCu+VR/96wMcVlcdAQTpCbV1rnknLlck8P0zJsN5nCN63MxmCBF3+smoAAAAHCOm/CzcSo92JNEi3YSOEbSCE1bWqhpZq4CvykFbtVuyFdt0D6xRv6FE2YgwZiWMF6eaQn/6Ml5Y3UZS0ngXONdQjJWUTNb4mit6o5LzvgEdTXSP1zj+lwNJpii6XUTUAAAADjXjb9FGa8f8CwHuUb3teTo2fmB4xQ+0LP3lfpGJ9xySxQtGRmOZzrDS18YwQJJUqwmLcyzTHmw2q/yDY1BSRh7rodJIYEI+aA0T9aBN6bwif0+1etVnvn8iWm6NUrqdtM7dXIpRbMnd79tYOM6eoIJ/bvKQ7S8bgIKAAAA5zynflGQoxYzYHCwVPfdV9rlHi1vrtEqrVBB1I5SCCH5aiW+9LIOHTihaSPCt4x6NW3BTAoZmGsBiGo/1p1F2WGDgx+UGrkTpFil3hI9IUSXyyVdntLjNWasDenoCCZ49PMqD9Hwur8TkbMCAABggE3Qfc/maJyNPVreXKNVu1z9VqKeO6E3nshXfn6+yhusz5uJEid7RiSMV9adiXLXbfDf7sQbeqNBkn6ky74vIyhgHiFwCcmwxuvmlFip8WW/Y594vVxvnAi/FxBRYZeQ/FSvP+4bzRA7aU7UjE7orTlz5kRXMCHkKg+fBj/fjb+9WKYPOsP/PdKvmxEKAAAA540Juu/ZCQqc3iBJGmtOg3DpT6vWaLdnpYdoGakwdnahxh4o0gbPCg8m6xKOkqTkLBWOeENFG6zbxSo25TJN03hNmz1Jhza8rPz8lyUZCR0XXlqkDf/RfRlG3Jqnwrhy5VvL8P1EJWq/NIJRC4hCjS8pL++lLjeJppUdDE065pLkHKmESBcF3RrU1tbWKUlut1sjuhgaBgAAgMj485//rCuvvHIAz+gfVJCkuFt6H1T4+OOP9bOf/ayPygYMrD//+c8DUn9PnDhxxu0xI4eCMc3hR68Van2tu4utY5W6OL/PRib0RfmjzZm9pg9UlveSrGMRjODNp0HPd+3HuvPxbE3oKjtlH7PzuhmhAAAAgABO/aJgheQ3UuFNfZB531mQqBE4n1lyJvw8X0U/l4zpDWauhGgckYCzGQEFAAAAhGANKsQpYyXBBCDaTcjJDvHsj3TrsiLdOuClOd/17yoP0YKAAgAAAMJw6hcFz+oXkS4GACAqscoDAAAAAACwjYACAAAAAACwjYACAAAAAACwjYACAAAAAACwjYACAAAAAACwjYACAAAAAACwjYACAAAAAACwjYACAAAAAERYTExMpIsASJIuvPDCHm9LQAEAAAAAwrjooosG5DyDBg1Sa2vrgJwLCOfUqVO2tiegAAAAEOUuuugiffPNN5EuBnDeaWlp0QUXXDAg5xoyZIhOnz5tu0EH9JXW1lZ9++23GjJkSI/3GZirAwAAAL0WFxeno0ePavjw4QPWWwqc71paWvSf//mfuuSSSwbkfOa1ffr0aX355Zf69ttvB+S8fenEiRORLkKfGjx48Dn3msKJiYnRoEGDNHToUFv3mUFtbW2dkuR2uzVixIh+KyAAAAB67+TJk/rss8/OypEKF198Mb2uOKs4HA595zvf0bBhw3TZZZdFujhA1GKEAgAAwFlg2LBhGjZsWKSLAQCAFzkUAAAAAACAbQQUAAAAAACAbQQUAAAAAACAbQQUAAAAAACAbQQUAAAAAACAbQQUAAAAAACAbQQUAAAAAACAbQQUAAAAAACAbQQUAAAAAACAbQQUAAAAAACAbQQUAAAAAACAbQQUAAAAAACAbQQUAAAAAACAbQQUAAAAAACAbQQUAAAAAACAbQQUAAAAAACAbQQUAAAAAACAbQQUAAAAAACAbQQUAAAAAACAbQQUAAAAAACAbQQUAAAAAACAbQQUAAAAAACAbQQUAAAAAACAbQQUAAAAAACAbQQUAAAAAACAbQQUAAAAAACAbQQUAAAAAACAbQQUAAAAAACAbQQUAAAAAACAbQQUAAAAAACAbQQUAAAAAACAbQQUAAAAAACAbQQUAAAAAACAbQQUAAAAAACAbQQUAAAAAACAbdEdUKhcqeTkZCUnz1bZ0T465tEyzU5OVvKsMjX3xXZ9eU4APlw3AIB+0rxptsYnJys5eaWq+uSIVXpofLKSk5M1exN3LWDAmO3FFVXq7Ix0Yc5PEQgoVGllcrInUGD5F6LR0CwpUZIUrytGDXhBgahXtSLZ+yXqr1lls3oTjPNcn0HHA84XwfeoXjUOPAExGhY4//T8d15UGHOl4m3uYgQjAu6vRyWNNv43/gq7RwS6YXayeP/1YWcrcIaiZ4TC4WLdlZyslZW+p+LTV2tLQ4MaGlYrLXIlA6Lf3jy/a6fXjn4SnT/4gIFQuVLJyXnaE/B048a77DeGmj9WYx8WDTjrmb/zKqKjCzF+7hbtb2hQw9Zs+wGF5kYFvYpRaXpsa4MaGhq0Or2PCglIqlo5XskzigPuKY0qnpHcN7/9gDMUwYDCVBU1GF+8DQ0vKneM8eyefCJuQG/sKYvS3h/gbHC0TLPzPaGEm4s89ybf/Wlq2uTIlg8460zV4/v3B//OW34Pv/OAnqpcqWV7jPDV1MIG372p8BZpTK7S4vnlh8iLkhEK8creat5sGvV2tefiCDmHOnAoXeDcN3Oot+9f2OidN0eDnaFDgccPsZ/fsKTZKuNaR79K1NSbE6XDxSrtNlIdvv5WrUj2RcD35vmuL299tl5r5nXoX//NKRjWa847LSPM9Wj8faWqrGUL1xtsubYYSo6+VFXmqfs3F6lhjXVMXLyytzZo9dx4/15Mv/uHtc566rEnONG48a7gOh24r2WKkXm9WOt386bZwVObQtwfvdsFHdd33wx9/XE9ob+F+Z0nSWpW2ezxXf6u6u4+EjQcfMXbvmPPMq6Tjzstvx9XVEmVK40cCkHX32yVHQ24V5rH85wnb6/xOopnWK8f83X0oPwBozTCnjdap4lggDSrrGyPOiUlzn/Rf+RL+mNq2JqttFGWO1PgdTCrTB9bq5r59xVvB7eBmjoV2Mbyq6ee7Wdv+jjgXrNSb3d2Brd9mgLG8JjXW5i67X8NjO/6GvAre+gcKIH3Q+5x/StKAgqSFK/JaUbGhMaq6jBfoM0qmxU4HHWP8szKVLlSycl3qfiw/14hRz0cLtZd+dYjNap4RndBhSqtDDp+wH6VKwOGJTWqOD9wmBLQt67MztFUSXvyu0ou1YP6G8qoybpxjCQ16xNzO+/UCOsPw2Z90ixJU5WWbp7P/OHlsyc/1Bd7s0pn+cqWmDY5xBDUKq2cUaxGJSp3R4O2zGWOKvpKlar2SlKicrO7m2DnHzDwOlysu3qQe6R50+zgfffmeRs1aZOnSpIamy0BhWbPHWRvle/69kypMK4V41q7a2PAnWZvnudaS9PqQuO4e6qtZfRdszlcT+h3xu+8QbL+zvPclxqtjQ/PfcnTIGneNDvkfcQbVKh8KHg4+N5l/gG4w2/rodm+349TJ3d1nTeqeEbAvTLweD1mJGoMKv/y8SHugyHOe7hYK2kInb+OVuvtw1JPvqObN83W+MDr4HCxpo8P8btw77KA+1Cjiu8eHzTlL9RoosaN0wPuNXu0bHzglIxGFd/9kOe8vnumX4jBc8/0T6JoXgOdftut3NTs3Tf4HrpHeYH31MqVQffDxo13EVToR1EUUOhBEhvzwhqTqxe9Q35ylbvDk2MhfbWKbjYaG+aQoKKbpeBouCFx/osBQ/EaVVwW/obRvKnUuNAs539xfqLl+EYkUZLfkFmjDEB/adTHzWnKmZ8oaY9Kw3xhdld/09Y0qMHT6PDV39VK8wb7fNdRc/XbalSiEsdYGj7m9XlzmtLCnM88fuPG0oAbXKMaD/uu3eBggS+YOLVwi7JJ0oq+5A2QWRMAB46GMwNv8cp+LFeJ1mkRO3KNBMJ7q1TlGdFgXFuW+8zWbMWrSqWeHzm+oatFmurdV1J6mv9jT7AjcUyirEG9quo9khJ14+R4mQED3z3Ncq2ZDbeg4yromgX6W+DvvC7vS/uM31XVVY2SrL/tipTr7a2t0kPL35Qkv/pfVBg40qhRjYd9U227z3FgmZZbOFWDJGlvqcqUrS3e34xd3bMsr69TQffBQQp1H/Q/5ovzA4MvOO+YuXi6TRxq3Fs6Zb23mPU0zO9C8x5m3r8k+eq9r130cYhdvdea+ZtRstRxzz3Ne7/y3TP37w91zwzMRpKo3O37Ld8Fnmug0/c6zTLsD5hO5X03qo22mN97Mb+Ijqh+FFUBhW6ZPaWHi3WXOQQmPduvcZG2ZouyR/l+CJpRYWtvjyRpTK5WeytWvLKzPRdFc7ikdJab2mO+BD7xc42e4caqajVbIolFlhtZWrb1YgX6h7cuhvyR0oP629WxPT8CzeuoublRGnOjboyXr4Fi9pjGx1vOJ03NtiS8Ss/x3uCqAoasJs5fHTZQUL3C6LUJGvIHRMKobG1Zk+YbUuntmbGM4gmlsspoPN1cZKnHvmCgcU3E60rriCBPsCM+7UYlWoLXxsgCSwAkfbW2zI33Da02e2wOf+y5ttOUdrNkvfaMwGB3vbVAf7Hclx7NCnFf2qdmS0DbN2ohTdnm77fKKm+DfbWlsZCWHlynp659rMeBs6mFlmTg6TlakDhI4RpX3b2+TgXfB43jBd8HrQHz+Mk3KnGQnfPhvGXeW8bkKsd7bzHaNiGDUmNy9aLZTvGOQk30ddAqXmbsr/mTgEp/8+O+hrkZqNZUFXmTm5r3MMv14rlnflJ6T9A981jAPXNq4RZlJRgVP37yjf7tJ8vrXD03XoMsr9PKHOlnjmTqVLyy53Kf609RFVAIqrRBLHPwPNmC/efSmYGEPDV7omdmdKsPSqePD0vWOXPJnnMFZgQHIsM6SkHy7wg6w/pr3jSaP1Gz2WOaNlmT4329pv49pub5EnWlXznC36TCjlA6XKxiMzAYMlgCnKFRV3h+CFkDAmlaHWaUmRlIuGtjvKc3x+yR6Zq3zntzlCR7jmMdmulrQH3cbDb6pyptrlHGxubmkCMLzEBCXrOnl2hHcCDbDG4b0x7Mxpw5RQnof/7f+5b70t3jw96X4udu8Y5a8G7nmX7gPV78Fd304AbeiwaC/fsg4Cf+SuN73BsYDs13HYz0vw7irzSCUt3s399898wrbN0zey19tXf0xJ78ZCN3A/lI+lUUBRR8PZqh50+bjOGk1qE25rxxc+jc1ML+mF9tRtz8p1R4//Vi2SGgr8XPXa3cMaEa3mdafz37H/5YzWaP6RXxnuhxo96urgroMQ0RoZbk61m1uU73mFwVdTOlA+g9s/e+62lvBs+QyzG5etHmksbeOu+3ioTvnzlqwdyu+ZNmz2igKxVvlnFvlar8RgNJOlqm0r2e43Z1LZs9UXurVGU2dpjugAHj67E3fudZ7kvb93d5X4qfuyVgipCxVHK8r2UehY2FPr4P4vzjHT3Q9W8f33VwzP86aP5YjZ3qwZSJ/uS7Z+7cb++eeUbSV/umOyQOIh9JP4uSgEKzyrwJ2bpKPFKlldbsud7h00avkpm4yhupO1qmlYFJqkx+FatKKz3DQ8MHM6zD7vwTnDRXVhkXsLeXy3rhN6vsIZIyYqCYQ7/2aM9e/+e7rb9WQT/OzP2b9Un1x0aPabq8db6xuSqgceJLsuq3nGVlqfc673mvqDGULs07pWMlS46hz5lDJK0JEkMy8y1YenyqVoQf6eM33c6bxyAvIDlUlf/QZ892jc3V+qTZd1+K94wIqqpulm80kHzzbL3Xbbj7jnld7lHVCmPoKNMdMDBC/c6z3Je8Cdw8W1vuS1UrrIl8zZF4nt966WmaOkhBjYXmTWVnNJrNet9q3rRSzzR2Kvi+1d0UCF8SysD7YOjjAYEsiUw33uW/usnRMs0220TmvcVvtS/LChFddtT2M797ppEvoat7Zpe8IzaM1+k5mrcNZ2reNNtyH49XdlZwsmP0rQsid+o9yksOrk5+89YCGCMQGqUZySr2+4vRK2r82Go0luna2H0JgrezBDPMhtLhYt214go1rEkz5vVtzNOeEGWfWtig1enGjW7Pxp6XAehz6TnKHbMnaLWT7uuvvF/WjYeLdVdysYwEPcY1aUTA96jYE2k2rhSj13TP3j3aI0uPqfV83mP5JM7P6XmU2htZNxLP7cnfo+KHyjSZUUHoS+mr9eL8ZmP6wd48Je8Ns515bwhzDzMZ14vlWGNy9eLW7PD3iDG5ejE9YA7q3mIVS5qa7Xl28o1K3FjsCRZO9eVPCLpuwzOO0ag9e/eIBg361x4tGx/id54ll0GX96W1+7X6ynKV7pUaFfybyrjG4pV934/15sa/BV9TzVeoYU0v7xJd3rc8UxYOG8Op98jI77NlbvBh4ufmaOqzeXrzTO+DOG/Fz92ixz8Zr7w9nd76ZtVYVqXsNUb7Y+/GxhDbRHgVH8s9M9T3gb1jZSvn5mLl7VXI98JgJm4Mvo9bf6Oib0XJCAV5s4N2lXAtfu6WEPNCLQ2euVv857reXBRyHqlkfPn75VcIGr5qDoGVJSu2Mac2cD7t1MIG5cQ3e8von7dhqor6e64Q4Cc4QY2h+/qrUdnaYs3aa51T7k2+I7/5qkYgT/LrMfWeLzj77hlNSTJHJVkTswJ9xBhWHeL7ekyuXmwwk6WlabXffcWYRhS0mk/6av97gWdEQ8j72JhcvfjYZGtJvCN8/OZfj7LME7dOVQi6bqeqKMS1Z26bY5aV6Q4YSObvvCnWTIOe+9JU/+yDUwsblHPlJ0bdDnMf8U4RmvuCf7Z5Sbr58YBVHuyZWuj/PTB17X6/+1baGs8wao/wPZ9pemx/iPIHHA/oStrq/cF13JzC6qnn8XO3aH/hLf6bDPQ0g5B6eM/s6dHWBOw7Jlcv+h0/9G9dI+jHNddfBrW1tXVKktvt1ogRIyJdHgAA0I+qVhgrIFkbZQC4NgCgN6JnhAIAAOhfZgJHpjsAAIA+EMEcCgAAYEAcLdPsGb5EjczfBgAAfYERCgAAnOOaq9+2BBOYSwoAAPoGORQAAAAAAIBtjFAAAAAAAAC2EVAAAAAAAAC2EVAAAAAAAAC2EVAAAAAAAAC2EVAAAAAAAAC2EVAAAAAAAAC2EVAAAAAAAAC2EVAAAAAAAAC2EVAAAAAAAAC2EVAAAAAAAAC2EVAAAAAAAAC2EVAAAAAAAAC2EVAAAAAAAAC2EVAAAAAAAAC2XWB98NVXX0WqHAAAAAAA4CziF1D43ve+F6lyAAAAAACAswhTHgAAAAAAgG0EFAAAAAAAgG0EFAAAAAAAgG0EFAAAAAAAgG0EFAAAAAAAgG0EFAAAAAAAgG0EFAAAAAAAgG0EFAAAAAAAgG0EFAAAAAAAgG0EFAAAAAAAgG0EFAAAAAAAgG0EFAAAAAAAgG0XRLoAAAAAAAB/p0+fVmtrq9rb2/vl+DExMXI4HBoyZEhEzt9dGSJ9fvQMAQUAAAAAiCKnT5/WV199pUsuuUQ/+MEP+uUcbW1t+uqrr/S9730vqEE9EOfvqgyRPj96joACAAAAAESR1tZWXXLJJRo6dGi/ncM8dmtra1BjeiDO31UZIn1+9FzUBBTaT7bIfbqbjf6bQ3GxjgEpDwAAAABEQnt7e7/2zJuGDh2qr776KmLnD1eGSJ8fPRf5gMLJOj25cK3ePNHDuTGxE/Trp9bothH9WywAAAAAABBehAMKrXpzbYHejLlNa0rukrPbES2t+uCppfr9g88qYet9umogigggSjSpPHuBXHMqtGpypMsCAABwPmrRm48s1b//R086g+M09bH1yhrT74VCBEU4oPCBPvizNOHBX2vCFT3b47bsqXrx/g/0/vH7dNXl/Vs6AFHkaK3qjqdoNsEE9IfqAk35rUuzNpYqa1RPtq2TrluuikfSAv5YpYKb1qruX2bpmbIsJQT+bcpa6Te9C4pVPTJFa9+1PuP0ltf4W4qWV6xSmt8+N2ntu9cFPG8E57Y6Q5UfAHBOOPGmfv/vLRo7L0spl/bhcY++qZf+Y6x+vWFWwD0umOulpVqxo05ZD6X0YQFCa333SeVteF9feh7HxN+lVWvuVMLgfj/1eS/yUx4kxcTY2HhwjGIkqf9WDwHOOmZDIyVkQ8XTeDjueXh5qIZOpPaRmspytGCby/PIGbZB1/ROnVzXzbY0iozGWZ33cXBjCugPVe/USZc75Xy3VlWdaUobFGKj41u1pTqrb0bTHC1Xzvytcl0+S89U+K6pprIcLZifI20sVdb1KSp8t0611VKa95xVqn2vU5JLx45K8l5XLrmOSylzzvBqsZYrxLUedG0/s0lZCaHerMD95mrBtmNyznxGpdlBR+3B90zAd0PIwE8gTyCo084+1nMFfP8cLdfcBVt1rDPUPuG/5wCgT5x4VUsX/l5/OSm9esClJc+s0i19GVS46HuKGx6nuG42a780TrED0WbrqNPvH39fCfnr9PCoQZLcenPVIj27d6qKMhzq/s6DMxEVAQUAvWT+oA+7gefHt8yGiPF4Qba6aOwP1D5mg0OatbFCWaMCGkgBP7ZdLpdSrjd/rnt+xFt+9DeV5WjBlAKJoAL6VZVq35VSfrNczs0LVLuvU2mTA3+qOJVynVT32wJVTT7T+tik8t9uC9loT8guVUW258GoSbpubZ1czU3SZM9WR4/puJxyXu5S3TtNyhrle94lp1KcvS9V8GiJgFKXzQ26tnMXzA15bVuOGhAkDDpqD75nAr8bjEDBlEfURYAgxD5TjH3eWpWmQWF+ifoHTAKMytKmt7KCy5+Tq62dKZpEMAFAf/nCLVdzk1paPY9P1unJBQW6sHSV0ob1/ela/7xV/3vvMX0b8q+x+qlqtfa3tZIuVNKdS3RbX01/+KJOz5bUyi1JX/1VVR0O/XTfv6t8n6dcHTH6ywsrVPgXT9gj8RdafgcT5vvDdyJdAABnYFSWSisqVLFxlkK2Daq3aOtxp2atMH9sJyhrxSw5j9ep9miYYw7UPqrSlm0uOWcu9zYwErKXa5an8RO4be27KZpk9rx6GkSzLD2sCdmzlSKjhxboN9W1qlOKJk1O0EinVPdOqArnkq436uOWssC6bPd8W7TNdbnl2grHKeflg+Ry+Rq4Te/UyXXtbM12yu95uVxyyamRZ9CoTXukQhUVFVp+Xai/VmnL9mNB1/ZM5/EQ17bfUbWqokIVFcsVcnBsD75nmsq2GqMFvMGDNK1aniK9W6uqMGdtKtti7LPKss9vjH26+jpJyC5VRUWFnpnp7FHvV1PZWm1zXaflPRi5BQC9cuJVLV0wQ4sqfqo1D92iH5rD/U/Wacuu8N1PvfeB/vejf9KXzp/qpz/r5t+ln+nZJ8q76ASzaWickpyt+ku1S470WVqy8E6lWc6XcuevtOSXUzWy7S/6S9tITbrqDKLo6BIBBeAc1tTski4P6A0bNVJOhWq0D+w+3l7S6/36XDXSKbnqauW3V3Wt6q6b5OvpDXVsz/Gc3C/Qj6reqZM8dTHt+hQNCttQTdPsmU65tm0J25Dt6fk6e9T4T9DIyyW5jnmvHZfLpcudlyvtev8GdVPzcWPKxhmUq0uekRFB1/blIa5tG3ryPeNyubyfj5fTKWcXwUZzn8mh9tkXcs5CLxgB1MtnzmIEFYD+4Znm4J54mxIOrNWiip/qsYduUdxgSVfcpl9n9se3fqtOtTmU8D9u0S03d/Mv7SrFdfThrHVHglL+R4IcilNSF+edEH+xHPETlPKvjr46MwIQUADOYX69kl5OOS8P97eB28foJQ2xl9MpHff/W9U7dcbzXmlatXGWtG2BpkyZooLqKhXM3ypZekSBvueZ7mBOvZk8SdcNCt9QNUbc1GntI1XqPJN2aQ8b//7XjlFWZ3yCp3HsyaOgJtW+65KcI/uvl9zlkivE6w11bds7bHffM006djzEJqNGyikZ00GCNOlYqMN2uY995iiI2Vmj++R4AODnxKvKW/R7uSfOkvMvr+ovbVLru2u1uOKnWrNmuZ743a/1036Y7hA96lQwNUflrmMqnzdFBTVS3WNTVMCo1QFBQAE41/Wm4TBQ+/So57VKte8G9nZ6hnN7/r/ut0ZStNlBCdyAPlRdqzq/UTBpmnTtINW9E24MQoKy5qRI727Rvx/tq55uI3/BlCnmvxyVe4b73tj6+gAAIABJREFUJ1x/nS9wcPSYXErRpBsGSaMmKcU7lcgl1/FOSz6S/nJmUyrCH7b77xlnL4YpOZ1O9V/WribV1rnknDlbQek2AOBMeUYmfHnNLDn/slV1n/v+1PrpIbkT0s7xYIIktUsdktr/afy3Q2rviHSZzh8EFIBznWUIdNTt4+017cLRY3IFDnOuLvAmfKuoqFBFxTNGT7ClcQX0tap33pXk0tb5vgb92nc7u5yfr8mrtPw6l7a+cAbdJAG9+mb+gqDcKZ7h/y6XjFEClztlrK7smUrkcvkSNYZsc1epYEroYIV9Pbi2e3XY7r9nwo6K6m6fvov5+Dtaq7rjxmgR4gkA+pR3mkNwMEFX3KaiJ871kQmIBgQUgHNY6J46Y8m4cL14A7WPMQw7xF4ul98Q76Z36qSUSX69ksY89tmW6Q0Jyip7RrMud2nr5jOZsQ6EYyzBmPIbM4hl/lvebTLQtDmzNPK9tb0aepl2fYoG9bhx7hn+39xkTBNKmSRzlca061OMxrjLJVdnuNEDZlJE818vlzZ0OuUM0XIOvLbtH7a77xlPHolAR4/JJc/0jyBGsMXePvYYo6ksSWUBoC+YwYTxoYMJT/zu1xp7ScRKh/NIhAMKMdJgqd1Odo5TrWr17AqgawnxTilwpYWQyRAHfp/QSRuN+cxObwChSbV1CjhGmDnPQH+qrtW7naF69tM06Tp1Me1B0qgszbp2kOo210qhGrxdmTxbM53HexgoM0ci1BrXkbVH3OmU83idtrzjUmd/JmSUpFEjdXmoa/u49dq2ryffM06nM3jEiMvVZYPe3Kc61D43nPmYgjMNpABAkNY6FSwsV/t1t8ixP3QwoV9HJnzzlVo+b5G7NfRikTi/RDigkKJb0h36oGSRnq1uUsvnLV3+c/3lVRX87lW5//UW3WL3RxlwPpo82+i1X1PuGSbcpPI1W+Wy9u5XF2jKlCnKMZe3G6h9vFnw13qHVTeVrdXW45ZcCEdrVXc8sDfVnJce0ONbvUVbj2sA5objfFT1Tp06A6feeIRsxAZIeyRfKcfrVBcqaWCXEpT1m5lyvrtWU7LL/Yb7W/OIeM9zfYr07lZtPR7QgDbzKLzrkjMlpZ+XLUzT7LtHBl3b21zXWa7tcuVMmaIpj9gYUdSD75mE7FlKkZEI01ClgrV1cs6c7V1dwchBYck94Vlydm2BZZ/f1vnlPAjcBwAi6vMjcn33Nv36gSVa/9v7dJUZPBiIYMKoSbol/n2tvWeOlu5s6b/pYrZM0F0P3adb4hN0y/xVumucdFXmEv3iqkiX6/xwQaQLMOGBZ7Tk8RX6w+ML9FK3yTNiFPuzWXpi+Z2KG4jCAVGu6pEpWvuu77Hrt1M05beSrluuikfSZE4FUPYCLZiy1djo8ll65hFfo7up2WiSGPOOEwZwH2Md92eUowXzp8jYy6lZG1d5f/g3vVMn13Wzg5dZm7xKFc5y5cz3vF7vvhWs8oAzYORH2BrwbErOLLnelZwzQzfEE65PkXPbVm0pa1Jadrhjp2n2zC2q29aL4TWjslRaMUnl1uvLKJmWV6wKsUSi5ArqEfcM7T/eB8P4j5YrZ/5WSzBjq6dcTs3aaEyTSMjeFHxtP/Owr6zmKi+enAgJkprKcrTA+v5sW6Ap2yRdPkvFpVkaPaj77xlj2oZUMGWtpkxZazx13XJVeBO2miOcPLkmRln2ucnOPlUqmLJWdd7zurR2yhStlZTymwqt8gZzPPv256oaAM5Px7dqwRSXllf8T03913L9tWXqAK3mkKA7C3foTklSlQq213WzfT/67sVyqF3fdjh0VeoE47kJKUY78ae3KE5SU0e7NDhyRTwfDGpra+uUJLfbrREjRkS6PADgVfXIFNVeb/1xDgAAcO47ceJE+LZZYGDXk4CxtzkTQp2ry/N7Vangpi1yPtODnDuHn9WcwhitKssKGWANPF/Pzt+ilx7I0bMfdTF/frBTszaUKmtM10fq2fkQSsRHKABAaFWqfTdFkx6JdDmAflBdoJt+W9flSFH/nm4AADxGZam0IivSpZB0lZKu/lzPhhjdF4rj5jV9PForTnc+9YZntAQihYACgKjUVLZFddfN1qpIFwToD5NX6S2CBQCAs1qc7nzyj5r6udtImt+V/+ZQXKxjIAqFAUZAAUBUSsguVUWkCwEAAIAuxMgxPE6ECs5fEV7lAQAAAAAAnI0IKAAAAAAAANsIKAAAAABAFImJiVFbW1u/n6etrU0xMTERO3+4MkT6/Og5AgoAAAAAEEUcDoe+/vrrfm1Ut7W16euvv5bDEZwBYSDO31UZIn1+9Nygtra2Tklyu92svQkAAAAAUeD06dNqbW1Ve3t7vxw/JiZGDodDQ4YMicj5uytDpM+PnmGVBwAAAACIMkOGDIloQ/d8Pz96hikPAAAAAADANgIKAAAAAADANgIKAAAAAADANgIKAAAA+P/bu//Ytq47z/sfj1utjdF2bCNB1aC8qiF2Bk36h7PF+Gmjq1HFlKq9A3gHWAd9RNU7oZRBLc8knmaaonQ2kdjAYjIpnCYZRHFTiVmkonaeyQymBgbeMREqKq+6iAfd9R87LTClYPhq6zoIKjkoB3I1MPT8cS8p/rikSFkUZen9AoRE5D33HNK8Rzzfe873AABQNwIKAAAAAACgbgQUAAAAAABA3QgoAAAAAACAuhFQAAAAAAAAdSOgAAAAAAAA6kZAAQAAAAAA1I2AAgAAAAAAqBsBBQAAAAAAULePFP6yuLjYrHYAAAAAAIC7SFFAYf/+/c1qBwAAAAAAuIuw5AEAAAAAANSNgAIAAAAAAKgbAQUAAAAAAFA3AgoAAAAAAKBuBBQAAAAAAEDdCCgAAAAAAIC6EVAAAAAAAAB1+0izGwDsVLcffrjZTQAAAACwBex+551mN2FdmKEAAAAAAADqRkABAAAAAADUjSUPwBZwt05xAgAAALA+22EJNAEFAAAAANhibt26pWw2q+Xl5Yacv6WlRa2trdqzZ09T6l+rDc2uH7UhoAAAAAAAW8itW7e0uLioffv26Z577mlIHUtLS1pcXNT+/fvLBtSbUX+1NjS7ftSOgAIAAAAAbCHZbFb79u3T3r17G1ZH7tzZbLZsML0Z9VdrQ7PrR+22TEBh+cMbWri1xkEfbVXbgdZNaQ8AAAAANMPy8nJD78zn7N27V4uLi02rv1Ibml0/atf8gMKHls49EdPF6zWujTlwWI+/dFbH7mtsswAAAAAAQGVNDihkdTEW1cWWYzr7xiMy1pzRktXll57Sq984L3/ia7p/M5oI4O4xF9fgSVv9yWEFmt0WAAAAYJtrckDhsi7/RDr8jcd1+FO1lTg2cER/86eX9d7813S/r7GtA3B3ycxYsjv7CSagLqmRXsVmOxUpCUSlRoKKzZolj2cUHxhSwogoOVJw9HRUwVFL6ozo0nBAu3YV1aBob0zWJ0MamwjLr5LngjHpTFLDPbW2OKP44Ckl7JXih32Vz2/3jWl8oPiZwue+P+BXYZOd1154bOH74L4H8+UtM+t6HQCAu88NXRx5Sm/+rJbZ5W068tzLCv9uwxuFJmr+kgdJLS11HLy7RS2S1LjdQ4C7Tu7Lv/eX+ZIv/56DjiaVmYtr8GRCdv4BQ6HXxxXuKDnzxKCGplaPUmfJYM6tP23ZMk+sPl42KCor5wyorDXqx/YW6O5UbNZSeloK5K+flNKzkmTr2pyk/GfClj2vos+ZJKVmLMlnyJhNa1oB76DWfEKT0+GNG3AXfZ6dIMNQ0LrDz7B7TfhCeu1SWJ92owypkaBiA3H5xlcfK7uepqMKjgYV1Z0HFXLXvOEZCHGePzVlywmp1H7drvaVlzTcs6vk2fI+7LXC1ytJ01H1jlrKhXJqC6CU9DOe/ZeHXP9YU/8LACWuX9Srb97Qg38SlnnvBp537qLe/tmDevyV0Jr9kv32U3r6ry2FnzE3sAHesrPn9M1X3tOv3N9bDj6i4bPH5d/d8Kp3vN9qdgMA3IG5uAaDpXcSC7lfkBXSWDKpZHJMISU0NBBXpuJJN6nMdFTBkwkZZ5JKJp2fsT4pcXJQ8bnVw1IjQQ1NGYokc8eNKWTHFJ0uPaEte95UV0+uPUHF7Fx7kkomIzJnYwqOpFbrd+/OVqsfO0BPl0xJ9tWCT+vcNdkyZPhsWTMejxuFJ3CCD+aJiEyfpfS7JTMHJEmGzE5D1mhUqYa8CL/C468p5LOVOLn+OlIjTjBhbKJ4IB0YSSpZ8liZnmFFOiXrrbh+7vUW1NYCRXuDxQHEEk6wQeobu1T7dVtLXzl4qqwPOzVY0Ie5s1A6zzj1Js+YskaDHn1RyesJxmR1Rrz7oUqlRnoVLAq2AkAdrl/QU0+c04XphKJDUV38YIPP/9v71fbxtrV/7m3TpuTTv23p1Rfek//0d/XyKy/r5VeGFbh5Xuf/Mat1/zlCzQgoAHezjrDGk0klXw/J8Hp+elKJeUOhp3N3t/wKPx2SMW8pXenL92aV6RlWMll8d88/0C9TBQO4ubgmZw2FXi+ccu5XeMLjruB0WlZnl3ucc0yy6K5eQP19hjSbdgZbbv2Fdz/L6scOYcjwSba9OnzLzMzK7uxXv1H8uGxbtgy1F94Nn07LkqmuHr/aDcma8Rph2lJ3v0xZmpxo1OfLr/AJU5Iz26Juc3FNzkrmifXfDTcMz56oDgENX3IH3p7PpzQ5Zcvoi+hRvxPd8A9EFHIDPxW/ONbQV07ZvrI+rP3/5vqwjOJvOUtanv2iG1XJBVBmUlqpUHFmYlKWTEXyMxICGj5jrvZDld6FESdoEemschAAePlgQfbVjG5k3d8/tHRuKKrUh42pLvuThM6NxhTz+JnMHNChpbT7+zld+JcNrPgDS+dzdX3rvFK3W/XLd99UfDyu+PgPlbndois/eFrP5475259uYOUoREAB2MYyV23JZ6qrcPDT0S6jyqB5s8p4mrsmW5Jx0PlKn5mxZJeet4LUjCWzu/o0Ytu2nWnpFY9wBpbYaZxAgOxr+bvRtm3LMAwFuosHf85nvfgzlJqxJDeYFeg2taviYNEJatlTkw2apSDv2RY1ysxYHrMv6lMUfGkEd4aI2V2Y88H597OttDLrvBVVqQ/z5fswd6lLd3F+DMNwgpSV4je2bec/GwWFZKw36AMA1Vy/oKeGvqLTyUM6+8xRfSI33f9DS5N/34j++bK+9+0f6lfGIR363Bo/9/5S51+Mb9zMq71tesDI6sq0rdYvhfTkE8cVKKjPPP5nevKPj6h96YquLLWr6/47DXijki2RQwFAY3h/uXcGzZZtSx73ITerTLmUou564UhPwXmNdvlzCe/c85avl04pPWvIOFH57JmJQXftdJW7r9OTmpqXOg+yWnmncQaGtpxPa0rpH6/I6PbnB39OHgUnT4eM9oLPkLvc4Yw7ZOzpUmcsVpKPYZV/IKKQNaTYSEo9ZckbN+SVeF539tSQglOVShT/1r7O/AuF11jVpRF3wrY9v4zm/v3mJX16Xae1PWY3GDJ8u5z3MhfsLDnCf9CQk2djRfKX52S45lWoo12G3KBPD30NgA1y/YKeeuJVLXz+mPw/ium0IvruM9J/fe6ibviO6fE/asSAOqtfL7XK/4WjOrrW3465G3r7f25gGrxWv8wv+BX/b7Ye+PLRigm5M7/4W72jwzI/sxlrL3YmAgrAdlc0+NliZaTV7PiSjL4xJfNLENwv4/MxBRVRMjnsPDoxqKGTg1JhUGE6Lctnaqzsj1lhkjVTkeR4lR0gnCnNK76Q+slSv+P4u00ZU27gQNc0L1OhHknqkulLyJrJ6NEOj4SM02lZMhTKf08LqOuh5xWbSUk9Xp82Z1lCYnRSb871KLxJ40nv5IbuLg/rPelsTMFgrOCBta6xjbL+oEf1067Vh61v9sadLwMBgDVcv6Bvnn5VC58PybiSkLUkaTamP1dEL589pAV/QId+p9mNbCRL0SNxGd97VnruMdknknp4Jqh3zKT6m920HYCAArDdudO46xq3bFYZycll4A7gMxODCgbt4szpJRnR/QP9MqdismYyCne4SyOu2jLMfo+6nVwKYUnO4CmoWIWM6amRIScPxNijZFPfiTraZSghZ7KNLfuTuWUNznT6RP4utSGzYHyYmpmVtKLEyaASRSdMK1Vpt4eeYUVmgor9YFrhkY1+IU7QwzDXO4gt3dWiilp3K5DKdkeobeeYDWhjXaddqw+znc9HnfXaNc/SAoB1yM9McIMJ768+lf3FP2vB//g2DyZI0rJ0W9Lyvzn/vS0t3252m3YOcigA25j3nTF3wFHhrtlmlfHiHxjPZ4nPeKxrd2sryXOQUdqSzO61vrAHNPx6SMZ8QpMla5dXt5IbV7hs2jJ2Bjcx49WMUjOWfKaZHwIGuk3nc1iWkNFZGmEW7FSSz+S/xhr5wImQ2n/stVvJHZpOy9JqHpJ6+LtNGblB80brGdalwvdovcEEwzsHSi4/ynpToBiGofIr35Y9v+L0Ye4yhVKZq86ahvYOr37D7cNKleSKAYB1qxJM0KeO6S9f3AnBBDRbkwMKLdJuabmexTS/zirrFgVQnf+gIZXutFCQ1KyZZWoR6Dal+dI1026gIvdlfM7NsL/Ou5W5YILRN1bDfvLYvtzEfnZa1+ySwZ5hyJi3lJgpScg4ndbsitc0+IC63Oz/FXWEFXpol6y30lr3KLiMuxPBepftdHTJ9OUCeltUQbLX1ZwHzvIow+wqT2NQo0p92Hy+D3NzU5Ts6JBLuljp7c4lbSz6JNi2bOW2uAWAdcoFE37fO5jw4nce14P7mtY67CBNDiiYOvqlVl1+47TOT2d04/0bVX/sKxcU/c4FLXzmqI6SiR1YW0+/sy/92dwAIaP42YTszv6C/ANRBYNBDea2stukMqmRoILBkr3jp6PO4N7scu5e9vQr5LMUG1gd4KRGYu4Wfc7vmRlLdunaZ3fP+eK93t025ctmFB/szQcTyteXY6dxdnRIKDFvquuLBSPTji6ZPlvWrL362ZSzu8NKhV1IPAeSpfWNfEvmvCVrfiNan1F88FTJ9q318is8EZE5n9DQQFw/Lxg456/X9W6jsGFyO2XE9KbblsxETIl5U/0D7s4Ppf1TLXr61WfMl/Vh1x7K9WHulpyzMX37Xfc9mI4qNmsodCKXXDOj+EBQwWA0/+/ubEVrKZbvi1KKjloy+vrd5TBOP1RYBgDWlLUUfSKu5c6jav0n72BCQ2cm/Ouibrx/QwvZ3zSwEtwtmp5D4fDXx/TkC0/rr14Y0ttrrnVp0YHPhfRi5LjaNqNxwBaXu7ueY48GFRxVwdpmv8ITY9LAkIaC7gpvX0hjBeuenSm7het8N6dMYCQpY2JQQyVrz4vyJ3idV6YiyeH8l/G0ZRcnyZPcPefbFQ2WJI3zhTSWdAdb05Oasp2BQXkGfK+dJLDtudPp7bKp8+7U9aKZMXFNzkpGn+k5eHeSPCY0OZFRYKBShQH1903KmlrnGoPSpIidESXH7zQlYkDDyYBSI0Gd6i26Mguuu8bJTAzq1FTBjgu5a7Mg54J/YFxjGtSpoV637zAUen21beX9k1df2VveV46/VtaHvTZc8Ip7hpVUVL25snL6q9V+wpk9VZzjIaDhpIr7os5IQfJZZ1lFUZm5uB4bSuha/k1IuG2iXwLgev/nsj92TJGvh+X/Q0Onz5zXTz/U5gQTOrp09ODTin31otr6QjKaHWeWJB3WI8+06sBBv3RyWAu/Jx3Y/6QOfELS1Wa3bfvbtbS0tCJJCwsLuu+++5rdHmDHuP3ww/n/3/3OO01syd0spWgwra5NGOgAAABsluvXr1cem83FNXjSmXUZSf6FfvPMV3TuxpF1BxO86qpaf15K0d5JGWM1BDvn4ho8K0Uq5NApra+m+j94W6dD/1tH/sdZHd3tfUjmjf+i2O5n15yJWtvr3XjbYTzQ9BkKALBu02nNdnZpuNntADZEStHemKxqd3vq2VkBALDNWYoFrbsjAePtZS1vdBK8e011fTauc0eCOlfpmN2GQq+wrLWRCCgAuEs5Ceg6Tzzb7IYAGySg4UsECwAAa+gIazwZbnYrJN2vBz77vs6XbZ3srfXLZzd4E902HX/pH3R8Q8+JehFQAHCX8is8kWx2IwAAAHaoNh0/93c68v6CswtfNR9tVduB1s1oFDYZAQUAAAAAwDq0qPXjbSJUsHM1edtIAAAAAABwNyKgAAAAAABbSEtLi5aWlhpez9LSklpaypMlblb9ldrQ7PpROwIKAAAAALCFtLa26ubNmw0dVC8tLenmzZtqbS1fsLAZ9VdrQ7PrR+3IoQAAAAAAW8iePXu0f/9+ZbNZLS4uNqSOlpYW7d+/X3v27GlK/dXa0Oz6UTsCCgAAAACwxezZs6epA92dXj9qw5IHAAAAAABQNwIKAAAAAACgbgQUAAAAAABA3QgoAAAAAACAuhFQAAAAAAAAdSOgAAAAAAAA6kZAAQAAAAAA1I2AAgAAAAAAqBsBBQAAAAAAUDcCCgAAAAAAoG4EFAAAAAAAQN0IKAAAAAAAgLp9pPCXxcXFZrUD2HE+VvD/XHsAAADAzrIdxgNFAYX9+/c3qx3AjnO74P+59gAAAICdZTuMB1jyAAAAAAAA6kZAAQAAAAAA1I2AAgAAAAAAqBsBBQAAAAAAUDcCCgAAAAAAoG4EFAAAAAAAQN0IKAAAAAAAgLoRUAAAAAAAAHUjoAAAAAAAAOpGQAEAAAAAANSNgAIAAAAAAKgbAQUAAAAAAFC3jzS7AQAAAACAYrdu3VI2m9Xy8nJDzt/S0qLW1lbt2bOnKfWv1YZm14/aEFAAAAAAgC3k1q1bWlxc1L59+3TPPfc0pI6lpSUtLi5q//79ZQPqzai/WhuaXT9qt2UCCssf3tDCrTUO+mir2g60bkp7AAAAAKAZstms9u3bp7179zasjty5s9ls2WB6M+qv1oZm14/aNT+g8KGlc0/EdPF6jVNZDhzW4y+d1bH7GtssAAAAAGiG5eXlht6Zz9m7d68WFxebVn+lNjS7ftSuyQGFrC7GorrYckxn33hExpoBqKwuv/SUXv3GefkTX9P9m9FEAHePubgGT9rqvzSswK5mNwYAAADY3pocULisyz+RDn/jcR3+VG0ljg0c0d/86WW9N/813e9rbOsA3F0yM5bszn71NLshuKukRnoVm+1UJDmsQNHjQcVmzZLHM4oPDClhRJQcKTh6OqrgqCV1RnRpOKBdRQGtlKK9MVmfDGlsIiy/Sp4LxqQzSQ3X/MHNKD54Sgl7pfhhX+Xz231jGh8ofqbwue8P+FXYZOe1Fx5b+D6478F8ecvMul4HAODuc0MXR57Smz+rZXZ5m44897LCv9vwRqGJmr/kQVJLSx0H725RiyQ1LtkncNfJffn3/jJfMvjwHHR4lCkcMKyzzGvjYX262kyBubgGTyZk5x8wFHp9XOEOj/OVMMoGSBmlLVvmidXBXNmgqLNkEOgOqKzC+se+r7Cf6Q07SaC7U7FZS+lpKZC/flJKz0qSrWtzkjpyj9uy5yXzRKDoHKkZS/IZMmbTmlZAxc+65hOanA5v3IC76PPsXOdDQavgGloP95rwhfTapdXrNzUSVGwgLl/hNV16PU1HFRwNKqo7DypkJgY1NGV7XOerz5+asuX0akbNr3m1r7yk4Z7S67yGPmw6qt5RS7lQTm0BlJJ+pqwfqiDXP9bU/wJAiesX9eqbN/Tgn4Rl3ruB5527qLd/9qAefyW0Zr9kv/2Unv5rS+FnzA1sgLfs7Dl985X39Cv395aDj2j47HH5dze86h3vt5rdAAB3YC6uwWDpncRC7hfklT6NJZNKJscUUkJDA3H9fGWNMgqVlclUbIgbtCgpc2qwSpnpqIInEzLOJJVMOj9jfVLi5KDic5LkV3hi9bnVYwxJhszu0j9jtux5U109udcQVMzOtSepZDIiczam4EgqX3+ve3e2sP6pocfc+rFj9HTJlGRfLfi0zl2TLUOGz5Y14/G4UXgCJ/hgnojI9FlKv+t1cRkyOw1Zo1GlGvIi/AqPv6aQz1bi5PrrSI04wYSxieKBdGAkqeTEGgHCnmFFOiXrrWr9y5otULQ3qKEpu+IRTrBB6hu75NFvVFBLX7lWH+bOQuk849SbPGPKGg0qOr3G6wnGZHVGvPuhSqVGehUsCrYCQB2uX9BTT5zThemEokNRXfxgg8//2/vV9vG2tX/ubdOm5NO/benVF96T//R39fIrL+vlV4YVuHle5/8xq3X/OULNCCgAd7OOsMaTSSVfD8nwen56Uol5Q6Ezj7pRZL/CT4dkzFuy5ip0sbkyT4fLyqQrfWGfntSU7Ssr0/5/q5TpGVYyWXx3zz/QL1POAM6zdXNxxaZsmWc87kZOp2V1drl3ht1gRNFdvYD6+wxpNu0MtnqGdSmZLLr76R/oV+eukgEkdgBDhk+y7dXhW2ZmVnZnv/qN4sdl27JlqL3w8zedliVTXT1+tRuSNeM1wrSl7n6ZsjQ50ajPl1/hE6YkZ7ZF3ebimpyVzBPrvxtuGJ49UR0CGr7kDrw9n09pcsqW0RfRo+5MIv9ARCFflX5DqqmvrN6HZRR/y1nS8uwX3ahKLoAyk9JKhYozE5OyZCqSn5EQ0PAZc7UfqvQujDhBi0hnlYMAwMsHC7KvZnQj6/7+oaVzQ1GlPmxMddmfJHRuNKaYx89k5oAOLaXd38/pwr9sYMUfWDqfq+tb55W63apfvvum4uNxxcd/qMztFl35wdN6PnfM3/50AytHIQIKwDaWuWpLPlNmR8FtxY52GbJl/ch7UJMr01U4YMqVqTDQrlTGV6WMp7lrsiUZB4vXc+ek3pqS7Qup32OKcWrGktldfRqxbdvOtPSKRxgyfCx32HmcQIDsa/m70bZtyzAMBbqLB3/OZ734M5SasSQ3mBXoNrWr4mD40y3FAAAbaElEQVTRCWrZU5MNmqUg79kWNcrMWB6zL+pTFHxpBHeGiNld2Ec4/362lVZmnbei1u7D3KUu3cX5MQzDCVJWit/Ytp3/bBQUkrHeoA8AVHP9gp4a+opOJw/p7DNH9YncdP8PLU3+fSP658v63rd/qF8Zh3Toc2v83PtLnX8xvnEzr/a26QEjqyvTtlq/FNKTTxxXoKA+8/if6ck/PqL2pSu6stSurvvvNOCNSrZEDgUAjeH95d65G2vZ85I+XWcZW/K4d2nbtsedQWdwXqlMuZSi7nrhiNea5Lm4Ej9ekRnxunuaUnrWkHGi8tkzE4+5a6er3H2dntSUvaLOr7JaeadxBoa2nE9rSukfr8jo9ucHf04eBSdPh4z2gs+Qu9zhjDtk7OlSZyxWko9hlX8gopA1pNhISj1lyRs35JV4Xqv21JCCU5VKFP/Wvs78C5mJwfw1VnVpxJ2wbc8vo7l/P+9erZbTrtGH5YKdJUf4Dxpy8mysSGW5VzK65lWoo12G3KBPD30NgA1y/YKeeuJVLXz+mPw/ium0IvruM9J/fe6ibviO6fE/asSAOqtfL7XK/4WjOrrW3465G3r7f25gGrxWv8wv+BX/b7Ye+PJR79xFkjK/+Fu9o8MyP7MZay92JgIKwHZXNPjZYmWkoiRnRt+Ykh4J2CT37uknQ/qWV7BhOi3LZ2qs7I9ZYZI1U5Hk9yv+wclNaV6pMAMC25u/25Qx5QYOdE3zMhXqkaQumb6ErJmMHu3wSMg4nZYlQ6H897SAuh56XrGZlNTj9WlzliUkRif15lyPwps0nvRObuju8rDek87GFAzGCh4wFUmOV7nGNsr6gx7VT7tWH7a+2Rt3vgwEANZw/YK+efpVLXw+JONKQtaSpNmY/lwRvXz2kBb8AR36nWY3spEsRY/EZXzvWem5x2SfSOrhmaDeMZPqb3bTdgACCsB2507jruuunVumrrHOespITi4DdwCfmRhUMGh7ZE537gyvVPjCn7lqyzD7PZ5zcimEJTmDp6BiFTKmp0aGnNwRY4+ue/047mId7TKUkDNBx5b9ydyyBmc6fSJ/l9qQWTA+TM3MSlpR4mRQiaITppWqtNtDz7AiM0HFfjCt8MhGvxAn6GGY6x3Elu5qUUWtuxVIZbsj1LZzzAa0sa7TrtWH2c7no8567ZpnaQHAOuRnJrjBhPdXn8r+4p+14H98mwcTJGlZui1p+d+c/96Wlm83u007BzkUgG3M+86YO+AwfOso4z1IMQzDI+eBLXt+pa67c/6Bce8s8XNpWfOS2e01dSCjtCWPXR9KBTT8ekjGfEKTJWuXV7eSG2fLyB3LTcx4NaPUjCWfaeaHgIFu0xlsliVkdJZGmGdKdyOJyFxjjXzgREjtP46tsUPAOkynZcnJQ1Ivf7cpIzdo3mhuEtT8e7TeYILhnQMllx/Fu1er5bRr9GHuMoVSmavOmob2Dq9+w83NUaogVwwA3JEqwQR96pj+8sWdEExAszU5oNAi7ZaW61lM8+ussm5RANX5DxpS6Y4Oubusf+D9ZTZXpmh3hoJEaPWUma9Spi7uQM4zBjLnZthf593KXDDB6BurYT95bF9uYj87rWt2yWDPMGTMW0rMlCRknE5rdsVrGnxAXW72/4o6wgo9tEvWW2mtexRcxt2JYL3Ldjq6ZPqcgN6W3eekIEHsaq/m5CowzK7yNAY1WrsPc3NTlOzokEu6WOntziVtLPok2LZs5ba4BYB1ygUTft87mPDidx7Xg/ua1jrsIE0OKJg6+qVWXX7jtM5PZ3Tj/RtVf+wrFxT9zgUtfOaojm7YFzBgG+vpd/alH33THSBkFD+bkN3Zr0dzd9SmowoGgxqccL+g58qcjZeVyW/VWFAmV0+fMV9W5tpDXmV+LskZyAeDJXvHT0edwX0dA4PMzKzs0qUQ7p7zxXu9u68j/0U+o/hgbz6YUL6+HDuNs6NDQol5U11fLNwZpUumz5Y1azufTffh1IylldKdAVyeA8nS+ka+JXPekjW/Ea3PKD54qmTL13r5FZ6IyJxPaGigeJZQ/npd7zYKGya3U0ZMb7ptyUzElJg31T/g7vxQ2j/VYs0+zN2Sczamb7/rvgfTUcVmDYVO5JJrZhQfCCoYjOb/3Z2tcC3F8n1RStFRS0Zfv7scxumHCssAwJqylqJPxLXceVSt/+QdTGjozIR/XdSN929oIfubBlaCu0XTcygc/vqYnnzhaf3VC0N6e821Li068LmQXowcV9tmNA7Y4lIjvYrNrn7Bt0eDCo6qYG2zX+GJMWnwlIaC7gpvX0hjI4H89F5nyq57p23FL+1yywwMlZVRvsz8ahn5nXrGXysr89pwYZlcPU4e9sBIUsbEoIZK1p6X50+oNq04o/SsLfOrJeu4O8IaT7YrGixJGucLaSzpDrbcHR0krwz4hkKvj68GQ7AzuNPp7bKp8+7U9fmCmQtzcU3OSkaf6Tl4d5I8JjQ5kVFgoFKFAfX3TcqaWucag9KkiJ0RJcfvNCViQMPJgFIjQZ3qLboyFUkONzzhYmZiUKemCnZcyF2bBTkX/APjGtOgTg31un2HodDrq20r6tPcf53cTKQce7S3vK9cow9Tz7CSiqo3V1ZOf7XaTzhLw4pzPAQ0nFRxX9QZKUg+6yyrKCozF9djQwldy78JCbdN9EsAXO//XPbHjiny9bD8f2jo9Jnz+umH2pxgQkeXjh58WrGvXlRbX0hGs+PMkqTDeuSZVh046JdODmvh96QD+5/UgU9Iutrstm1/u5aWllYkaWFhQffdd1+z2wPsGLcffjj//7vfeaeJLbmbpRTtTavrUuMHOgAAAJvl+vXrlcdmc3ENnnRmXUaSf6HfPPMVnbtxZN3BBK+6qtafl1K0d1LGWA3Bzrm4Bs9KkQo5dErrq6n+D97W6dD/1pH/cVZHd3sfknnjvyi2+9k1Z6LW9no33nYYDzR9hgIArNt0WrMPdWm42e0ANkRK0d6YrGp3e+rZWQEAsM1ZigWtuyMB4+1lLW90Erx7TXV9Nq5zR4I6V+mY3YZCr7CstZEIKAC4SzkJ6DpPPNvshgAbJKDhSwQLAABr6AhrPBludisk3a8HPvu+zpdtneyt9ctnN3gT3TYdf+kfdHxDz4l6EVAAcJfyKzyRbHYjAAAAdqg2HT/3dzry/oKzC181H21V24HWzWgUNhkBBQAAAADAOrSo9eNtIlSwczV520gAAAAAAHA3IqAAAAAAAADqRkABAAAAALaQlpYWLS0tNbyepaUltbSU776wWfVXakOz60ftCCgAAAAAwBbS2tqqmzdvNnRQvbS0pJs3b6q1tTwDwmbUX60Nza4ftSMpIwAAAABsIXv27NH+/fuVzWa1uLjYkDpaWlq0f/9+7dmzpyn1V2tDs+tH7QgoAAAAAMAWs2fPnqYOdHd6/agNSx4AAAAAAEDdCCgAAAAAAIC6EVAAAAAAAAB1I4cCsAXcfvjhZjcBAAAAAOrCDAUAAAAAAFA3AgoAAAAAAKBuLHkAmmT3O+80uwkAAAAAsG7MUAAAAAAAAHUjoAAAAAAAAOpGQAEAAAAAANSNgAIAAAAAAKhbUVLGxcXFZrUDAAAAAADcRYoCCvv3729WOwAAAAAAwF2EJQ8AAAAAAKBuBBQAAAAAAEDdCCgAAAAAAIC6EVAAAAAAAAB1I6AAAAAAAADqRkABAAAAAADUjYACAAAAAACoGwEFAAAAAABQNwIKAAAAAACgbgQUAAAAAABA3QgoAAAAAACAuhFQAAAAAAAAdftIsxsAAAAAACh269YtZbNZLS8vN+T8LS0tam1t1Z49e5pS/1ptaHb9qA0BBQAAAADYQm7duqXFxUXt27dP99xzT0PqWFpa0uLiovbv3182oN6M+qu1odn1o3YEFAAAAABgC8lms9q3b5/27t3bsDpy585ms2WD6c2ov1obml0/ardlAgrLH97Qwq01Dvpoq9oOtG5KewAAAACgGZaXlxt6Zz5n7969WlxcbFr9ldrQ7PpRu+YHFD60dO6JmC5er3FtzIHDevylszp2X2ObBQAAAAAAKmtyQCGri7GoLrYc09k3HpGx5oyWrC6/9JRe/cZ5+RNf0/2b0UQA28t0VMG3DI1NhOVvdlsAAADuKjd0ceQpvfmzWm4Gt+nIcy8r/LsNbxSaqMkBhcu6/BPp8Dce1+FP1Vbi2MAR/c2fXtZ781/T/b7Gtg7A9pOasWSYYwQTUGw6quCordDr4wp31HKsJXVGdGk4oF27Cp9MKdobk/XJkEfQKqVoMCadSWq4p/4mpkaCis0WPmLk2+s8ZyqSHFagqEyvYrOdJY9nFB8YUsKIKDlSeDQAYNu4flGvvnlDD/5JWOa9G3jeuYt6+2cP6vFXQmt+l7LffkpP/7Wl8DPmBjbAW3b2nL75ynv6lft7y8FHNHz2uPy7G171jtf8JQ+SWlrqOHh3i1okqXG7hwB3ndxAw/QcqGQUHzylhL3i/OrzGuh4nlXRYEyWygcpxc+7Oj0GJ7mBl8u7fSU2pMwlDffs8jgwpfSsIfOEP/970WuQodDY9xX2e5Vd633GTpGasSSfIWM2rWkFPK4NSfMJTU6HN+ZzMhfX4MmEbF9IY8nVazczMaihk4PS6+MKd5t6ftZSeloK5OtMKf3jFUm2rs1JygdKbNnzknniDoMJhe3y6FMyE4MamrLd36pfW8XlHtPQ1DUZfWMaHyg7qxMMmXd/9ay7hr6pjBsIWqmnTGFdJf3kXFyPDSV0bcWrjFFb4AoA1uv6BT31xKu68qF04X/ZenJsWEc3Mqjw2/vV9vE2ta1x2PK9bTqwGWO225ZefeE9+b/1XT3bsUvSgi4On9b5fzyiv/yPrVr7Lw/uxJYIKABYp9wX+ooHuF++lRuIOL8PDUivjYf16Qo9bPFAwIv7JTr/pdv5Mh4c0eqX8Omoeket1cH3dFTB0aCiqjTYVz4wUF6mygDeo0zvaK93mblrsn2m+jtW2+frG1PSHbRkJgZ1augxZ4BW+mV/Olpydxg7U0rpWck8E5Hx1pDS764oUPZ5NmR2StZoVKker2BcPTKKj055Dtr9A+NKDri/dHSpM2bJvpqRetyj5q5pXoYMny1rJqNwx+rjtgyZxvpbVT5boqTVE49paEoKvZ5UuGONa2v1rCUBvrKzVuzPVt+bGvqmSvUWlgk6ZcpnoBS+xir9ZEdY378ULm//4CklVkx1EUwA0CgfLMi+mtGNrPv7h5bODUX178aHFfidja8u+5OEvveP1/Qbz2cP6JDSio2mJf07PXD8SR3bqOUPH1g6/0ZaC5K0+FOlbrfq0LtvKv6u267bLbryg6f1/BU37PF7/0mR/8yC+Ub4rWY3AMAd6AhrPJlU8vWQPMcG05NKzBsKnXnU/bLtV/jpkIx5S9ac560z56iBcSWTSY31GZ5R3cxEwrkjl/+CHtBwxJRm00o5Ryj+lqWVzsjqoL5nWJFOyZqZrlCrU0aeZVKVy/xgtqzMtzp3eZbJzFiS2eW8Fz3DupRMFt0B9Q/0q3OXM/gqllJ01JLRF1LjJ+1hS5tOy5Kprh6/2o1Kn2db6u6XKUuTE6WfpXrrm9SU7VPo6bVmFRkyfLtk26sD3MyMJfuhfvUbKnpcti1bhtrvYFAbGEkqmUwq0un1bEqT//2ajL5IPnjgH4ioz5j3uLaKzqrhZFLJZMT7Osv1Z/n3YrU/S885h6zdN5XLTEw6ZYYLypxxylTqrZzXVL2fLK8npim7UxHytwBolOsX9NTQV3Q6eUhnnzmqT+Sm+39oafLvq90oWq/L+t63f6hfGYd06HNr/Nz7S51/MV7lJlid9rbpASOrK9O2Wr8U0pNPHFegoD7z+J/pyT8+ovalK7qy1K6u++8gio6qCCgA21jmqi35TJkdBV93O9plyJb1o/UPdGzbljq7iu+8GoYMOVOu81Oqu4unCBiGoV0Vv9jnygTKylQeDNiy51dqLJNR2pLM7mpf5Z1BWanUyPOyfCFFBtqrlMVOkJqx8p/9QLdZ5fMcUH+fIXtqsuJAttb6Vmoa/PvV7pNkX1PuyrZtWz7Dp0B38YA6c3XeWbJxB+2qyp0ZUXytOe2zrbTW2/Pk+rOiu/u5/swNVKzdN5XLlenxKvNu5cBrfVKanLLl6wvd4YwVAKjAXeaw8Plj8v+vmE4nD+m5Z46qbbekTx3T43/UiF4/q18vtcr/haM6+uU1fgL3q+32Bq5ab/XL/IJfrWrTA1XqPXzw36v14GGZn2ndqJpRgoACsI0V3ZXMM2T4JNue93iuFhld8yra0S5DcqZcz13zjED7DxrKr+cutc4yXk3xH/SVl5lLy5pfY2A2Pakpe0XGwdWBUGZiUM/P1nKHGNufu9whF8Dq6VLnrsoDVf9ARCGfpdhISit3Mi6tcfBvGIY0b7vXkdNW46DfHRznroeM0rO2ZLQ37vNs27I9Xm9x+9Zz2mr9ma2a+qYyGV3zOm3VMvXLzYLoD396Q84HAEWuX9A3T7+qhc+HZFy5oCtLUnY2pj9PHtLZsxG9+J3HdagByx22DkvRI4OK29cU/5Ogoj+SrOeCilabZoYNQ0AB2O4aNHAwjLWGOM4X/TrPqjVPu84ymZlZ2aV3LouPcJZp+ELqz92qnIsrNmWr88z3SaAGd7lD4ectoK6HvJfXOPwKnzCl2Um9WWWJUb1SI0EFg7mfQcXdwJm/u3M1cDB3TbZMdX1xl9TRJdOXu4vvPatn493ZkorKp127P1u7b6pQpmFZuzJKW7aMvn5VSh8DAOvmzkz41f8TknElIev91aeyv/hnLfgD2zyYIEnL0m1Jy//m/Pe2tHy72W3aOQgoANtdwRToDT2t593CoiNU/yQIW2uedp1lbNuuOohKjQyV5JvIKH42Ibszome/yCgAUmpmVpKtxMnVAX1sdqXq+nwnD4itxA/u4DZJyV39XP6Cstwp7vR/25YzS8BnyInpOfkebNteTdToOeZOKRr0DlbUr8KsojtVQ3+2dt9UoczGxXyKzaVlzTuzRehJAGyo/DKH8mCCPnVMf/nidp+ZgK2AXR6AbcwwDJXPL3YG+oZZ9/QBl7tWu5S7ZME46Jc6bM8p2pmrtireuXSnGNdbxqspmavzJWVSSv+4U10jHgercDvIcYVztz/dQYDmY+rtjRUXGA0qOFppO01sT84WjOVbhjo7AhRv11gscCKkxFBM0elI3bUGuk09P1u67WMlzqwg62pGKduSYY4pt0tjoNtU7K1ryti27BVDIc9zBTSc3IBPtGHI2FU+qLdtW/J1rjt3Q/X+zFBNfVMZJ9hSX5n6ZGYs2TJXZz4BwEbIBRN+3zuYsP2XOWCraPIMhRZpt7RcT3aOX2eVdYsCqM5/0JBKd3TIbRn3B+v/ouyZ9NC2nSnWPVJ+YFOSAd+2ba1UXHaQK5MqK1OWZK2oTPmU87Iy02nNPuR9jlwwwegbKx4o5nbQKPpxss+bZ5JKEkzYWabTml3xurMfUFfVnUgkdYQVemiXrLfS8oyAVdPTrz5jXom3akntmJuJkNY1u+SOuGHImLc0OWNrpZEJGSU30Fe6W4qT38DI7bKyDrn+LF2UG8Xtz9wEkGv3TeVyZaa9ymzA7CQnkNLg9xzAzpK1FH0iruXOo2r9pyYEE/51UTfev6GFrPdmkdhZmhxQMHX0S626/MZpnZ/O6Mb7N6r+2FcuKPqdC1r4zFEdXe/NVWAn6elXyGcrMfqmO004N42/X4/mdn6YjioYDGpwIlPzjF//QEimnGRzjpSiMUtGX787yHbWju+aja0mxJmOKjZrKPTV3Lf6jOIDQQWDUaVWVsvIq8yJQHmZXD1f7Swr8/ysr6CMkynfV5bQIaP4YG8+mFC4fSRQKjVjaaV0hwFX9Z1IHIGRb8mct5xZL3XxK3ymT8ZsTMGBeNF0f+fOd0k93aY0m1BivmQAncujMGvLMM0GJxgNqP//bZc9Fcsvmchtmdifu87m4hoMBhUcqWMPjFx/djZe1p+tbk+5Vt+Uy0FRkHtiwNniMxYtKDNqFeU8KC0DAE31/s9lf+yYHv/6k3p59Gu6Pxc82IxgQkeXjh58T7GvntBT/9+Nxi0Xq8thPfLM13T0oF9HTw7rkf8g3f9HT+o/3d/sdu0MTV/ycPjrY3ryhaf1Vy8M6e01k2e06MDnQnoxclxtm9E4YItLjfQ6a7hd9mhQwVFJnRElRwKS/ApPjEmDpzQUTDgH+UIaGwnk71w6Swpya4j90i5nCre1elbFgkHFpILp3gENJ6VoMKZg0F0O0BlRsnBQ3jOsS4oqmGuTWz6/pCCfY8HWtbkVyb9L6hlW0qtMh1cZOVPAPctcKiiTUnrWkPnVkiGUu6ODJNlTQwpOFT5pKPT6OIkYdxwnP0Ki5FFzMCR7VjL6vAfi/m5TxlRCkxMZBQYqnTug/r5JWVPr2OOgI6zxZJfiA0Or17HTsvJlN4ZzJ9wuuyPuTu2f34Bp/HNxDZ5MFAQzEm67Vq8b/8D3NaZBDeXfT0OhsWdX22q7eSHcnAh+OTuqDBW+P7nr0hfSa+NhfXqX258Vvg9uf7Zqrb4pt6uDm2uio6BMbz1lauknC8o2clcNADvTfEJDQVuR5F/oyGfi+umNI5u0zMGv48//tY5LklKK/ndrjeMb6GP/Xq1a1m9ut+r+PzjsPHbYdMaJh46qTVLm9rK0u3lN3Al2LS0trUjSwsKC7rvvvma3BwA21lxcg2elyHg4v54cAABgK7t+/XrlsVlpYNdNwPjgvo2rq2r9eSlFeydljNVwE+ZfzuvE8y0anvDehru0vtrqv6G3vz6o8/+nyvr53YZCr4wr/LvVz1RbffDS9BkKANBImRlLMiPqIJiArWQ6qt5Rq+pM0fIEkAAAyJ25Fm52KyTdrwc++77Oe8zu89L65bMbPFurTcdf+gd3tgSahYACgG0spckpyXyd7dqwxfQM6xLBAgDAXa1Nx8/9nY68v+Akza/mo61qO9C6GY3CJiOgAGAb26Bt8AAAAOChRa0fbxOhgp2rybs8AAAAAACAuxEBBQAAAAAAUDcCCgAAAACwhbS0tGhpaanh9SwtLamlpaVp9VdqQ7PrR+0IKAAAAADAFtLa2qqbN282dFC9tLSkmzdvqrW1PAPCZtRfrQ3Nrh+127W0tLQiSQsLC+y9CQAAAABbwK1bt5TNZrW8vNyQ87e0tKi1tVV79uxpSv1rtaHZ9aM27PIAAAAAAFvMnj17mjrQ3en1ozYseQAAAAAAAHUjoAAAAAAAAOpGQAEAAAAAANSNgAIAAAAAAKgbAQUAAAAAAFA3AgoAAAAAAKBuBBQAAAAAAEDdCCgAAAAAAIC6EVAAAAAAAAB1I6AAAAAAAADq9v8DHqpU8H8Ekh4AAAAASUVORK5CYII=;" vertex="1" parent="130">
                    <mxGeometry x="21.03" y="942" width="337.4" height="138" as="geometry"/>
                </mxCell>
                <mxCell id="140" value="IPsec" style="" parent="0" visible="0"/>
                <mxCell id="141" value="" style="edgeStyle=none;orthogonalLoop=1;jettySize=auto;html=1;strokeColor=#FF3333;strokeWidth=2;fontFamily=Verdana;fontSize=8;fontColor=#FF3333;endArrow=none;endFill=0;opacity=80;elbow=vertical;entryX=-0.161;entryY=0.846;entryDx=0;entryDy=0;entryPerimeter=0;rounded=1;shadow=0;startArrow=none;" edge="1" parent="140">
                    <mxGeometry width="80" relative="1" as="geometry">
                        <mxPoint x="454.0035746076512" y="398.0849771966532" as="sourcePoint"/>
                        <mxPoint x="384.71013000000016" y="732.4200000000001" as="targetPoint"/>
                        <Array as="points">
                            <mxPoint x="454" y="396"/>
                            <mxPoint x="443" y="428"/>
                            <mxPoint x="429" y="455"/>
                            <mxPoint x="400" y="515"/>
                            <mxPoint x="344" y="629"/>
                            <mxPoint x="309" y="699"/>
                            <mxPoint x="292" y="735"/>
                        </Array>
                    </mxGeometry>
                </mxCell>
                <mxCell id="142" value="" style="orthogonalLoop=1;jettySize=auto;html=1;rounded=1;shadow=0;sketch=0;strokeColor=#FF3333;strokeWidth=2;fontFamily=Verdana;fontSize=8;fontColor=#FF3333;endArrow=none;endFill=0;elbow=vertical;" edge="1" parent="140">
                    <mxGeometry width="80" relative="1" as="geometry">
                        <mxPoint x="418.1300000000001" y="606.9999999999998" as="sourcePoint"/>
                        <mxPoint x="460.27" y="606.9999999999998" as="targetPoint"/>
                    </mxGeometry>
                </mxCell>
                <mxCell id="143" value="" style="edgeStyle=none;orthogonalLoop=1;jettySize=auto;html=1;strokeColor=#FF3333;strokeWidth=2;fontFamily=Verdana;fontSize=8;fontColor=#FF3333;endArrow=none;endFill=0;opacity=80;elbow=vertical;rounded=1;shadow=0;" edge="1" parent="140">
                    <mxGeometry width="80" relative="1" as="geometry">
                        <mxPoint x="330.94550418101335" y="381.3384175046465" as="sourcePoint"/>
                        <mxPoint x="439.99982456140356" y="379.74795210895377" as="targetPoint"/>
                        <Array as="points"/>
                    </mxGeometry>
                </mxCell>
                <mxCell id="144" value="&lt;br style=&quot;border-color: var(--border-color); color: rgb(255, 51, 51); font-family: Verdana;&quot;&gt;&lt;span style=&quot;border-color: var(--border-color); color: rgb(255, 51, 51); font-family: Verdana;&quot;&gt;IPSec VPN+BGP over ExpressRoute&lt;/span&gt;" style="text;strokeColor=none;align=center;fillColor=none;html=1;verticalAlign=middle;whiteSpace=wrap;rounded=0;dashed=1;labelBackgroundColor=#FFFFFF;fontSize=10;opacity=50;fontStyle=1" vertex="1" parent="140">
                    <mxGeometry x="444" y="584" width="251" height="30" as="geometry"/>
                </mxCell>
                <mxCell id="156" value="&lt;font style=&quot;font-size: 8px;&quot;&gt;0/0 -&amp;gt; OPNNVA .20&lt;/font&gt;" style="aspect=fixed;html=1;points=[];align=center;image;fontSize=12;image=img/lib/azure2/networking/Route_Tables.svg;labelBackgroundColor=none;fontFamily=Verdana;fontColor=#FF3333;fillColor=none;spacing=-8;" vertex="1" parent="140">
                    <mxGeometry x="496.00000000000006" y="687" width="20.65" height="20" as="geometry"/>
                </mxCell>
                <mxCell id="157" value="Use UDR to force traffic over VPN only" style="text;strokeColor=default;align=center;fillColor=none;html=1;verticalAlign=middle;whiteSpace=wrap;rounded=0;dashed=1;opacity=50;fontColor=#FF3333;fontSize=10;" vertex="1" parent="140">
                    <mxGeometry x="582" y="683" width="181" height="28" as="geometry"/>
                </mxCell>
                <mxCell id="163" style="edgeStyle=none;html=1;entryX=0;entryY=0.5;entryDx=0;entryDy=0;dashed=1;fontSize=10;fontColor=#FF3333;opacity=50;" edge="1" parent="140">
                    <mxGeometry relative="1" as="geometry">
                        <mxPoint x="516.65" y="697" as="sourcePoint"/>
                        <mxPoint x="581.9999999999999" y="697" as="targetPoint"/>
                    </mxGeometry>
                </mxCell>
            </root>
        </mxGraphModel>
    </diagram>
</mxfile>